<?xml version="1.0" encoding="utf-8"?>
<!-- Generator: Adobe Illustrator 19.0.0, SVG Export Plug-In . SVG Version: 6.00 Build 0)  -->
<svg version="1.1" id="Layer_2" xmlns="http://www.w3.org/2000/svg" xmlns:xlink="http://www.w3.org/1999/xlink" x="0px" y="0px"
	 viewBox="0 0 361 515" style="enable-background:new 0 0 361 515;" xml:space="preserve">
<style type="text/css">
	.st0{fill:#58545E;}
	.st1{fill:none;}
	.st2{fill-rule:evenodd;clip-rule:evenodd;fill:#58545E;}
</style>
<g>
	<path class="st0" d="M9.5,488c0,0-0.1-7.5-0.3-20.6c-0.2-13.1-0.5-31.8-0.8-54.2C8.2,402,8,389.9,7.9,377
		c-0.1-12.9-0.3-26.4-0.5-40.4c-0.3-28-0.6-57.9-0.9-87.9c-0.2-15-0.4-29.9-0.6-44.6c-0.2-14.7-0.4-29.2-0.4-43.2
		c0-14,0.2-27.6,0.5-40.4c0.1-6.4,0.3-12.7,0.4-18.7c0.2-6,0.4-11.9,0.5-17.5c0.1-5.6,0.4-11,0.6-16.1C7.6,63,7.8,58.2,8,53.6
		c0.2-4.6,0.4-8.8,0.6-12.8C8.8,36.9,9,33.3,9.2,30c0.4-6.5,0.7-11.7,0.9-15.2c0.3-3.5,0.4-5.4,0.4-5.4l1,0c0,0,0.1,1.9,0.4,5.4
		c0.2,3.5,0.5,8.6,0.9,15.2c0.2,3.3,0.3,6.9,0.5,10.8c0.2,3.9,0.3,8.2,0.5,12.8c0.2,4.6,0.3,9.4,0.5,14.5c0.2,5.1,0.4,10.5,0.5,16.1
		c0.1,5.6,0.3,11.5,0.4,17.5c0.1,6,0.2,12.3,0.3,18.7c0.2,12.9,0.3,26.4,0.3,40.4c-0.1,14-0.3,28.5-0.6,43.2
		c-0.3,14.7-0.5,29.7-0.8,44.6c-0.4,29.9-0.9,59.8-1.3,87.9c-0.2,14-0.4,27.6-0.6,40.4c-0.2,12.9-0.5,25-0.7,36.2
		c-0.4,22.4-0.8,41.1-1,54.2c-0.3,13.1-0.4,20.6-0.4,20.6L9.5,488z"/>
</g>
<g>
	<path class="st0" d="M11,9.5c0,0,3.8-0.1,10.5-0.4C28.1,8.9,37.6,8.6,49,8.2C54.7,8,60.9,7.8,67.4,7.6C74,7.5,80.8,7.3,88,7.1
		c7.1-0.2,14.5-0.4,22-0.6c7.5-0.2,15.1-0.3,22.7-0.5c7.6-0.2,15.2-0.4,22.7-0.7c7.5-0.3,14.8-0.5,22-0.5c7.1,0,14,0.1,20.5,0.4
		c6.5,0.2,12.7,0.5,18.4,0.8c5.7,0.3,10.9,0.7,15.6,1.1c2.3,0.2,4.5,0.4,6.5,0.6c2,0.2,3.8,0.4,5.5,0.6c3.3,0.4,5.9,0.7,7.7,0.9
		c1.8,0.2,2.7,0.4,2.7,0.4v1c0,0-1,0.1-2.7,0.4c-1.8,0.2-4.4,0.6-7.7,0.9c-1.7,0.2-3.5,0.4-5.5,0.6c-2,0.2-4.2,0.4-6.5,0.6
		c-4.6,0.4-9.9,0.8-15.6,1.1c-5.7,0.3-11.9,0.6-18.4,0.8c-6.5,0.2-13.4,0.4-20.5,0.4c-7.1,0-14.5-0.2-22-0.5
		c-7.5-0.3-15.1-0.5-22.7-0.7c-7.6-0.2-15.2-0.3-22.7-0.5c-7.5-0.2-14.8-0.4-22-0.6c-7.1-0.2-14-0.4-20.5-0.6
		C60.9,12.2,54.7,12,49,11.8c-11.4-0.4-20.9-0.6-27.6-0.9C14.8,10.6,11,10.5,11,10.5V9.5z"/>
</g>
<g>
	<path class="st0" d="M254.1,10c0,0,0.6,7.1,1.3,17.8c0.2,2.7,0.4,5.6,0.6,8.6c0.2,3.1,0.4,6.3,0.6,9.6c0.2,3.3,0.4,6.8,0.6,10.3
		c0.2,3.5,0.3,7.1,0.5,10.6c0.2,3.6,0.4,7.1,0.7,10.6c0.3,3.5,0.5,6.9,0.5,10.3c0,3.3-0.1,6.6-0.4,9.6c-0.2,3.1-0.5,5.9-0.8,8.6
		c-0.7,5.3-1.5,9.8-2.2,12.9c-0.4,1.6-0.7,2.8-0.9,3.6c-0.2,0.8-0.4,1.3-0.4,1.3h-1c0,0-0.1-0.4-0.4-1.3c-0.2-0.8-0.6-2.1-0.9-3.6
		c-0.7-3.1-1.6-7.6-2.2-12.9c-0.3-2.7-0.6-5.6-0.8-8.6c-0.2-3.1-0.4-6.3-0.4-9.6c0-3.3,0.3-6.8,0.5-10.3c0.3-3.5,0.5-7.1,0.7-10.6
		c0.2-3.6,0.3-7.1,0.5-10.6c0.2-3.5,0.4-6.9,0.6-10.3c0.2-3.3,0.4-6.6,0.6-9.6c0.2-3.1,0.4-5.9,0.6-8.6c0.7-10.7,1.3-17.8,1.3-17.8
		H254.1z"/>
</g>
<g>
	<path class="st0" d="M296.3,166.6c0,0,0,1-0.1,2.9c0,0.5,0,1-0.1,1.6c-0.1,0.6-0.2,1.2-0.3,1.9c-0.1,0.7-0.2,1.5-0.3,2.2
		c-0.2,0.8-0.4,1.6-0.6,2.5c-0.9,3.5-2.3,7.7-4.9,12.1c-2.6,4.4-6.2,9-11.3,13.1c-2.6,1.9-5.4,3.9-8.6,5.3c-0.8,0.4-1.6,0.8-2.4,1.2
		c-0.9,0.3-1.7,0.6-2.6,0.9l-1.3,0.5c-0.4,0.2-0.9,0.2-1.4,0.4c-0.9,0.2-1.9,0.5-2.8,0.7c-0.9,0.2-1.9,0.3-2.9,0.5l-1.5,0.2
		l-0.7,0.1c0.2,0-0.4,0-0.3,0l-0.1,0l-0.2,0l-0.3,0c-1.8,0.1-3.5,0.3-5.8,0.1c-1.1-0.1-2.2-0.1-3.3-0.3c-1-0.2-2.1-0.3-3.2-0.5
		c-1.1-0.1-2.1-0.5-3.2-0.7l-1.6-0.4l-0.8-0.2l-0.8-0.3c-1-0.4-2.1-0.8-3.1-1.2c-1-0.4-2-1-3-1.5l-1.5-0.8c-0.5-0.3-1-0.6-1.5-0.9
		c-1-0.6-2-1.2-2.9-1.9c-0.9-0.7-1.8-1.4-2.7-2.2c-0.5-0.4-0.9-0.8-1.3-1.2l-1.3-1.2l-1.3-1.3c-0.4-0.4-0.8-0.9-1.2-1.3
		c-0.7-0.9-1.5-1.8-2.2-2.8c-0.7-1-1.3-2-2-3c-0.3-0.5-0.6-1-0.9-1.6c-0.3-0.5-0.6-1.1-0.9-1.6l-0.8-1.6c-0.3-0.6-0.5-1.1-0.7-1.7
		c-0.4-1.1-0.9-2.3-1.3-3.4c-0.3-1.2-0.7-2.4-1-3.6l-0.2-0.9l-0.2-0.9l-0.3-1.8c-0.2-1.2-0.4-2.4-0.4-3.7c-0.1-1.2-0.2-2.5-0.2-3.7
		l0-0.6l0-0.1l0-0.2l0-0.4l0-0.8l0.1-1.5l0-0.8l0-0.4l0.1-0.5l0.3-2l0.3-2l0.2-1l0.2-0.9l1-3.6c0.4-1.2,0.9-2.3,1.3-3.4
		c0.2-0.6,0.4-1.1,0.7-1.7l0.8-1.6l0.9-1.6c0.3-0.5,0.6-1.1,0.9-1.6c0.7-1,1.3-2,2-3c0.7-1,1.5-1.9,2.2-2.8c0.4-0.5,0.8-0.9,1.2-1.3
		l1.3-1.3c1.6-1.7,3.5-3.2,5.3-4.6c0.9-0.7,1.9-1.3,2.9-1.9c0.5-0.3,1-0.6,1.5-0.9l1.5-0.8c1-0.5,2-1.1,3-1.5c1-0.4,2.1-0.8,3.1-1.2
		c4.2-1.4,8.5-2.3,12.6-2.4c2.1-0.2,4.1,0,6.1,0.1l1,0l0.7,0.1l1.3,0.2l1.3,0.2c0.4,0.1,0.8,0.1,1.4,0.3c1,0.2,2,0.5,2.9,0.7
		c0.5,0.1,1,0.2,1.4,0.4l1.3,0.5c0.9,0.3,1.7,0.6,2.6,0.9c0.8,0.4,1.6,0.8,2.4,1.2c3.2,1.5,6.1,3.4,8.6,5.3c1.2,1.1,2.4,2.1,3.5,3.1
		c1,1.2,2.1,2.1,3,3.3c0.5,0.6,0.9,1.1,1.3,1.7c0.4,0.6,0.9,1.1,1.2,1.7c0.7,1.2,1.5,2.2,2.2,3.3c2.6,4.4,4,8.6,4.9,12.1
		c0.2,0.9,0.4,1.7,0.6,2.5c0.2,0.8,0.2,1.5,0.3,2.2c0.1,0.7,0.2,1.3,0.3,1.9c0.1,0.6,0.1,1.1,0.1,1.6
		C296.3,165.6,296.3,166.6,296.3,166.6L296.3,166.6z M295.3,166.6c0,0-0.1-1-0.2-2.9c0-0.5,0-1-0.1-1.6c-0.1-0.6-0.2-1.2-0.3-1.9
		c-0.1-0.7-0.2-1.4-0.4-2.2c-0.2-0.8-0.4-1.6-0.6-2.4c-1-3.4-2.5-7.4-5.2-11.5c-2.7-4.1-6.5-8.2-11.5-11.5c-5-3.3-11.2-5.7-18-6.5
		c-0.8-0.1-1.7-0.1-2.6-0.2l-1.3-0.1l-0.7,0l-0.6,0c-1.8,0.1-3.5,0.1-5.3,0.5c-3.6,0.4-7.1,1.6-10.5,3.1c-0.8,0.4-1.7,0.8-2.5,1.2
		c-0.8,0.4-1.6,1-2.4,1.4l-1.2,0.7l-1.1,0.9c-0.8,0.6-1.5,1.1-2.3,1.8c-2.9,2.5-5.5,5.4-7.7,8.7c-2.1,3.3-3.8,6.9-5,10.7l-0.7,2.9
		l-0.2,0.7l-0.1,0.7l-0.2,1.5c-0.4,1.9-0.3,4-0.5,6c0.1,4,0.6,7.9,1.7,11.7c1.2,3.8,2.8,7.4,5,10.7c2.2,3.2,4.8,6.2,7.7,8.7
		c0.7,0.6,1.5,1.2,2.3,1.8l1.1,0.9l1.2,0.7c0.8,0.5,1.6,1,2.4,1.4c0.8,0.4,1.7,0.8,2.5,1.2c3.4,1.5,7,2.6,10.5,3.1
		c1.7,0.4,3.6,0.4,5.4,0.5c0.2,0,0.5,0,0.6,0l0.7,0l1.3-0.1c0.9-0.1,1.7,0,2.6-0.2c6.8-0.8,13-3.2,18-6.5c5-3.3,8.8-7.5,11.5-11.5
		c2.8-4.1,4.3-8.1,5.2-11.5c0.2-0.8,0.4-1.7,0.6-2.4c0.2-0.8,0.2-1.5,0.4-2.2c0.1-0.7,0.2-1.3,0.3-1.9c0.1-0.6,0.1-1.1,0.1-1.6
		C295.3,167.6,295.3,166.6,295.3,166.6L295.3,166.6z"/>
</g>
<g>
	<path class="st0" d="M254.9,210c0,0,0.4,1.8,1,4.9c0.3,1.6,0.7,3.5,1.1,5.6c0.4,2.2,0.9,4.6,1.4,7.3c0.5,2.7,1,5.6,1.5,8.6
		c0.5,3.1,1,6.3,1.6,9.6c0.5,3.3,1,6.8,1.5,10.3c0.5,3.5,0.9,7.1,1.3,10.6c0.4,3.6,1.1,7.1,1.9,10.6c0.3,1.8,0.7,3.5,1,5.2
		c0.2,1.7,0.4,3.4,0.4,5.1c0.1,3.3-0.3,6.6-0.9,9.6c-0.6,3.1-1.4,6-2.3,8.6c-1.8,5.3-4,9.8-6,12.9c-1,1.6-1.8,2.8-2.5,3.6
		c-0.6,0.8-1,1.3-1,1.3h-2.7c0,0-0.4-0.4-1-1.3c-0.7-0.8-1.5-2.1-2.5-3.6c-1.9-3.1-4.2-7.6-6-12.9c-0.9-2.7-1.7-5.6-2.3-8.6
		c-0.6-3.1-1-6.3-0.9-9.6c0-1.7,0.2-3.4,0.4-5.1c0.3-1.7,0.6-3.5,1-5.2c0.7-3.5,1.4-7.1,1.9-10.6c0.4-3.6,0.8-7.1,1.3-10.6
		c0.4-3.5,1-7,1.5-10.3c0.5-3.3,1.1-6.6,1.6-9.6c0.5-3.1,1-6,1.5-8.6c0.5-2.7,1-5.1,1.4-7.3c0.4-2.2,0.8-4.1,1.1-5.6
		c0.6-3.1,1-4.9,1-4.9H254.9z"/>
</g>
<g>
	<path class="st0" d="M261.1,260.5c0,0,0.7-0.8,1.9-2.2c1.2-1.3,3-3.2,5.1-5.4c2.2-2.2,4.8-4.6,7.6-7.2c1.4-1.3,2.9-2.6,4.4-3.9
		c1.5-1.3,3.1-2.6,4.7-3.9c1.6-1.3,3.2-2.6,4.8-3.8c1.6-1.2,3.2-2.4,4.7-3.6c3.1-2.3,6-4.3,8.6-6c2.6-1.7,4.8-3,6.3-3.9
		c1.6-0.9,2.5-1.4,2.5-1.4s-0.7,0.8-1.9,2.2c-1.2,1.3-3,3.2-5.1,5.4c-2.2,2.2-4.8,4.6-7.6,7.2c-1.4,1.3-2.9,2.6-4.4,3.9
		c-1.5,1.3-3.1,2.6-4.7,3.9c-1.6,1.3-3.2,2.6-4.8,3.8c-1.6,1.2-3.2,2.4-4.7,3.6c-3.1,2.3-6,4.3-8.6,6c-2.6,1.7-4.8,3-6.3,3.9
		C262.1,260,261.1,260.5,261.1,260.5z"/>
</g>
<g>
	<path class="st0" d="M245,300c0,0-0.5,1.8-1.5,4.9c-1,3.1-2.5,7.6-4.3,12.8c-0.9,2.6-1.9,5.5-3.1,8.5c-1.1,3-2.3,6.2-3.6,9.4
		c-1.3,3.3-2.6,6.6-4,10c-1.4,3.4-2.8,6.8-4.2,10.3c-1.5,3.4-2.9,6.9-4.4,10.2c-1.4,3.4-2.9,6.7-4.3,9.9c-1.4,3.2-2.9,6.3-4.2,9.2
		c-1.3,2.9-2.7,5.6-3.9,8.2c-2.4,5-4.6,9.2-6.1,12.1c-1.5,2.9-2.4,4.5-2.4,4.5s0.5-1.8,1.5-4.9c1-3.1,2.5-7.6,4.3-12.8
		c0.9-2.6,1.9-5.5,3.1-8.5c1.1-3,2.3-6.2,3.6-9.4c1.3-3.3,2.6-6.6,4-10c1.4-3.4,2.8-6.8,4.2-10.3c1.5-3.4,2.9-6.9,4.4-10.2
		c1.5-3.4,2.9-6.7,4.3-9.9c1.4-3.2,2.9-6.2,4.2-9.2c1.3-2.9,2.7-5.6,3.9-8.2c2.4-5,4.6-9.2,6.1-12.1C244.1,301.6,245,300,245,300z"
		/>
</g>
<g>
	<path class="st0" d="M261,300c0,0,1,1.6,2.7,4.5c1.7,2.9,4.1,7,6.8,12.1c1.4,2.5,2.9,5.2,4.4,8.1c1.5,2.9,3.2,6,4.8,9.1
		c1.6,3.2,3.3,6.5,5,9.8c1.7,3.4,3.3,6.8,5,10.2c1.6,3.4,3.3,6.9,4.9,10.3c1.6,3.4,3.1,6.8,4.6,10c1.5,3.3,2.9,6.4,4.2,9.4
		c1.3,3,2.5,5.9,3.6,8.5c2.2,5.3,4,9.7,5.2,12.9c1.2,3.1,1.8,4.9,1.8,4.9s-1-1.6-2.7-4.5c-1.7-2.9-4.1-7-6.8-12.1
		c-1.4-2.5-2.9-5.2-4.4-8.1c-1.5-2.9-3.2-6-4.8-9.1c-1.6-3.2-3.3-6.5-5-9.8c-1.7-3.4-3.3-6.8-5-10.2c-1.6-3.4-3.3-6.9-4.9-10.3
		c-1.6-3.4-3.1-6.8-4.6-10c-1.5-3.3-2.8-6.4-4.2-9.4c-1.3-3-2.5-5.9-3.6-8.5c-2.2-5.3-4-9.7-5.2-12.9C261.6,301.8,261,300,261,300z"
		/>
</g>
<g>
	<path class="st0" d="M224.9,166.6c0,0,1.3-1,3.3-2.3c1-0.7,2.2-1.4,3.5-2.1c0.7-0.4,1.3-0.8,2-1.1c0.7-0.4,1.4-0.7,2.1-1.1
		c0.7-0.4,1.4-0.7,2.2-1.1c0.7-0.4,1.4-0.7,2.1-1c1.4-0.6,2.7-1.2,3.8-1.6c2.3-0.9,3.9-1.3,3.9-1.3s-1.3,1-3.3,2.3
		c-1,0.7-2.2,1.4-3.5,2.1c-0.7,0.4-1.3,0.8-2,1.1c-0.7,0.4-1.4,0.7-2.1,1.1c-0.7,0.4-1.4,0.7-2.2,1c-0.7,0.4-1.4,0.7-2.1,1
		c-1.4,0.6-2.7,1.2-3.8,1.6C226.5,166.2,224.9,166.6,224.9,166.6z"/>
</g>
<g>
	<path class="st0" d="M229,155c0,0,1.2,0.5,2.8,1.3c0.8,0.4,1.8,1,2.7,1.6c1,0.6,2,1.3,3,2c1,0.7,2,1.5,2.9,2.2
		c0.9,0.7,1.7,1.5,2.4,2.1c1.4,1.3,2.2,2.3,2.2,2.3s-1.2-0.5-2.8-1.3c-0.8-0.4-1.8-1-2.7-1.6c-1-0.6-2-1.3-3-2c-1-0.7-2-1.5-2.9-2.2
		c-0.9-0.7-1.7-1.5-2.4-2.1C229.8,156,229,155,229,155z"/>
</g>
<g>
	<path class="st0" d="M261,166.6c0,0,0.9-1,2.3-2.3c0.7-0.6,1.6-1.4,2.5-2.1c1-0.7,2-1.5,3.1-2.2c1.1-0.7,2.1-1.4,3.2-2
		c1-0.6,2-1.2,2.9-1.6c1.7-0.9,3-1.3,3-1.3s-0.9,1-2.3,2.3c-0.7,0.7-1.6,1.4-2.6,2.1c-1,0.7-2,1.5-3.1,2.2c-1.1,0.7-2.2,1.4-3.2,2
		c-1,0.6-2,1.2-2.9,1.6C262.3,166.1,261,166.6,261,166.6z"/>
</g>
<g>
	<path class="st0" d="M261,155c0,0,1.3,0.4,3,1.3c0.9,0.4,1.9,1,2.9,1.6c1,0.6,2.1,1.3,3.2,2c1.1,0.7,2.1,1.5,3.1,2.2
		c1,0.7,1.8,1.5,2.6,2.1c1.5,1.3,2.3,2.3,2.3,2.3s-1.3-0.4-3-1.3c-0.9-0.4-1.9-1-2.9-1.6c-1-0.6-2.1-1.3-3.2-2
		c-1.1-0.7-2.1-1.5-3.1-2.2c-1-0.7-1.8-1.5-2.5-2.1C261.9,156,261,155,261,155z"/>
</g>
<g>
	<path class="st0" d="M238.1,188.2c0,0,0.3-0.4,1-1c0.7-0.6,1.7-1.4,3.1-2.1c0.3-0.2,0.7-0.3,1.1-0.5c0.4-0.1,0.8-0.3,1.2-0.4
		c0.8-0.3,1.7-0.5,2.6-0.7c0.5-0.1,1-0.2,1.4-0.2c0.5-0.1,1-0.2,1.5-0.2c1-0.1,2-0.1,3-0.1c1,0,2,0.1,3,0.2c1,0.1,1.9,0.3,2.8,0.5
		c1.8,0.4,3.5,0.9,4.9,1.5c1.4,0.6,2.5,1.1,3.2,1.6c0.8,0.4,1.2,0.8,1.2,0.8s-0.5,0-1.4,0c-0.9,0-2.1-0.1-3.5-0.1
		c-1.4-0.1-3.1-0.2-4.8-0.2c-0.9-0.1-1.8-0.1-2.7-0.1c-0.9,0-1.8-0.1-2.7-0.1c-0.9,0-1.8,0-2.7,0c-0.9,0-1.8,0-2.6,0.1
		c-0.8,0-1.6,0-2.5,0.2c-0.4,0-0.9,0.1-1.2,0.1c-0.4,0-0.7,0.1-1.1,0.1c-1.4,0.2-2.6,0.4-3.4,0.6
		C238.6,188.1,238.1,188.2,238.1,188.2z"/>
</g>
<g>
	<g>
		<g>
			<rect x="132" y="436" class="st1" width="222" height="73.9"/>
			<path class="st2" d="M342.4,474.2c-0.2,0-0.3-0.4-0.5-0.5c0-1,0.3-2.1-0.3-1.4c0-0.4,0.1-0.6,0.2-1c0.3,0.1,0.5,0.8,0.5,1.7
				c0.6-0.1,0.5-1.7,1.2-1.4C343.2,472.6,342.7,473,342.4,474.2z"/>
			<path class="st2" d="M352.1,463.4c0.4-0.8,0.7-1.8,1.2-2.4c-0.1-1.5,0.4-1.7,0.7-2.4c0.3,1.4-0.1,2.5-0.5,3.4
				c-0.2,0.4-0.2,0.9-0.3,1c-0.1,0.1-0.2-0.1-0.3,0C352.8,463,352.3,464.1,352.1,463.4z"/>
			<path class="st2" d="M335.9,460.8c-0.2-0.3-0.2-0.8-0.1-1.4c-0.2-0.6-0.2,0.4-0.5,0.2c0.1-0.9,0.2-1.7,0.7-1.7
				C336,458.8,336.1,460.2,335.9,460.8z"/>
			<path class="st2" d="M239.5,451.9c0,1.1-0.2,2.3-0.2,3.4c0,1,0,1.9,0,2.9c0,0.9-0.2,1.8-0.2,2.6c0,0.7,0,1.3,0,1.9
				c-0.1,3.7-0.5,7.5-0.3,11.3c-0.4,1.3-0.3,3.4-0.4,5.3c0,0.4-0.2,0.9-0.2,1.4c-0.1,1.3-0.1,1.9-0.2,2.6c-0.1,0.8,0.3,0.2,0.2,1
				c-0.4,1-0.6,3.6-0.7,5.3c0,0.5-0.4,1.2,0,1.4c0-0.5-0.1-1.4,0.2-1.2c0,1.6-0.2,2.6-0.7,2.9c-0.2-1.9-0.1-5.8,0-7.9
				c0.1-2.4,0-4.9,0.1-7.2c0-0.6,0.2-1.1,0.2-1.7c0-0.9,0-1.9,0-2.9c0-0.6,0.2-1.3,0.2-1.9c0-0.7,0-1.4,0-2.2c0-0.8,0.2-1.6,0.2-2.4
				c0-0.9,0-1.9,0-2.9c0-2,0.2-4.2,0.3-6.2c0.1-1.6,0-3.2,0.1-4.6c0-0.7,0.2-1.1,0.2-1.7c0-0.5-0.1-1.1-0.1-1.7
				c0-1.3,0.1-2.3,0.1-3.1c0-0.3-0.1-0.6-0.1-0.7c0-0.3,0.1-0.5,0.1-1c0-2.5,0.1-5.4,0.3-8.2c-0.3-0.6-0.5-0.1-1-0.5
				c-0.8,5.6-0.8,14.9-0.6,20.9c-0.4,0.5-0.2,2.7-0.5,3.6c-0.2,0-0.4,0-0.7,0c0,3.1-0.2,4.4-0.2,7.2c-0.3,0.4-0.1,1.8-0.4,2.2
				c0,1,0.1,2.6-0.3,2.6c-0.1-1.6,0.1-3.1,0.2-4.8c0-0.7,0-1.6,0-2.4c0-0.6,0.2-1.3,0.2-1.9c0.1-1.7,0-3.3,0-5
				c0.1-3.2,0.3-7.7,0.3-10.6c0-0.4-0.1-0.6-0.1-1c0,0,0.2-0.2,0.2-0.2c0-0.2,0-0.5,0-0.7c0.1-1.9,0-3.6,0.1-5.3
				c0.1-1.3,0.4-2.5,0.2-3.8c-0.3-0.6-0.6,0.3-0.8-0.5c-0.4,1-0.6,2.2-0.7,3.6c-0.2,4.6,0.1,10.3,0,15.8c0,2.2-0.2,4.3-0.3,6.5
				c-0.1,2.8-0.1,5.5-0.2,7.9c0,0.5-0.2,1.1-0.2,1.7c-0.1,1.5,0,2.3-0.2,3.1c-0.1,0.7,0.1,0.9,0.1,1.4c-0.4,3.4-0.5,8.7-0.8,13.2
				c-0.4,1.3-0.3,4.4-0.7,5.3c-0.1,0.4-0.1,1.2-0.3,1.2c-0.6-2.3-0.2-5.7-0.1-9.6c0.1-2.7-0.1-5.1,0.2-6.5
				c-0.2-3.5,0.3-6.8,0.4-10.6c0.1-4.4,0-8.9-0.1-13.2c-0.2-0.2-0.4-0.4-0.6-0.5c-0.7,0.7-0.5,2.8-0.6,5c0,2-0.2,4.2-0.1,6
				c-0.1,0.9,0.2,0.7,0.2,1.4c-0.3,0.2-0.2,1.4-0.3,2.2c0,0.8,0.1,0.9,0.2,1.4c-0.2,0.4-0.3,1.5-0.3,2.2c0,0.8-0.1,2-0.1,2.9
				c0,0.4,0.1,1,0.1,1.4c-0.1,2.2-0.4,4.3-0.4,6.5c0,0.6,0.3,0.5,0.3,1.2c0,0.5-0.4,0.2-0.3,1c0,1.5-0.2,2.9-0.3,4.3
				c0,0.6,0,1.3,0,1.9c0,0.7-0.1,1.4-0.2,2.2c-0.1,0.7,0,0.6,0,1c0,0.3-0.2,0.6-0.2,1c0,0.7,0,1.7-0.1,2.4c0,0.6,0,1.9-0.4,1.9
				c-0.2-4.3,0.2-8.6,0.2-12c0-0.5-0.1-1-0.1-1.4c0-0.7,0.2-1.4,0.2-2.2c0-0.3-0.1-0.9-0.1-1.2c0-1.4,0.2-3,0.3-4.6
				c0.1-2.2,0.3-4.5,0.3-6.7c0-1.1,0.2-2.9,0.2-4.1c0-0.7,0-1.3,0-1.9c0-0.5,0.2-1,0.2-1.4c0.1-1.6,0-3.3,0.3-4.8
				c0-1.4-0.1-3.5,0-5.5c0-1,0.2-1.8,0.2-2.6c-0.1-0.9-0.3-2.1-0.8-2.2c-0.5,1.1-0.5,3.1-0.6,5c0,0.9,0,2,0,2.9
				c-0.1,2.7-0.2,5.9-0.3,8.6c0,0.4,0.1,0.8,0.1,1.2c0,0.8-0.2,1.7-0.2,2.6c-0.1,1.4,0,3-0.1,4.3c0,0.5-0.2,1.1-0.2,1.7
				c-0.1,1.7-0.1,3.4-0.2,5c-0.1,0.8-0.1,1.4-0.2,2.2c-0.1,0.8,0,1.8-0.1,2.6c0,0.4-0.2,0.6-0.2,1c-0.1,0.5-0.1,1-0.1,1.4
				c-0.2,1.9-0.3,3.5-0.5,5c-0.1,0.6-0.1,1.9-0.5,1.9c-0.2-1.6-0.2-2.7-0.1-4.3c0.1-1.8,0.2-3.2,0.3-4.6c0-0.4,0-0.8,0-1.2
				c0-0.5,0.2-0.6,0.2-1c0.1-1.9,0.1-3.8,0.2-5.8c0.1-0.8,0.2-1.6,0.3-2.4c0.1-1,0-1.9,0.1-2.9c0.1-0.9,0.1-1.7,0.2-2.6
				c0.1-1,0-2.1,0.1-3.1c0.2-3.2,0.5-6.1,0.6-9.1c0-0.7,0-1.5,0-2.2c0.1-1,0.2-1.9,0.3-2.9c0.1-1.7,0-3.3,0.1-4.8
				c0.1-1.6,0.3-2.9,0.3-4.6c-0.4,0.3-0.3-0.6-0.6-0.5c-0.4,0.3-0.5,1.2-0.6,1.9c-0.1,0.8-0.2,3.1-0.2,3.6c0,0.3,0.1,0.4,0.1,1
				c0,0.6-0.2,1.1-0.2,1.7c0,0.8,0,1.5,0,2.4c0,0.6-0.2,1.3-0.2,1.9c0,0.7,0,1.3,0,1.9c0,0.6-0.2,1.1-0.2,1.7
				c-0.2,2.9-0.1,6.1-0.5,8.6c0.1,1.7-0.1,3-0.2,3.8c0,0.7,0,1.5,0,2.2c-0.1,1.1-0.3,2-0.4,3.1c-0.1,1.4-0.1,2.9-0.2,4.3
				c-0.1,2.1-0.3,3.9-0.3,6c-0.4,1.7-0.1,5.3-0.8,6.5c0.1-2.1,0-4.2,0.1-6c0-0.6,0.2-1.1,0.2-1.7c0-0.4-0.1-0.8-0.1-1.2
				c0-0.6,0-1.8,0.1-2.6c0.1-1.4,0.2-2.1,0.3-3.1c0.1-1.5,0.2-3.1,0.2-4.8c0.5-1.7,0.4-4.2,0.5-6.5c0.1-2.4,0.5-5.1,0.4-7.4
				c0.2-0.3,0.2-0.8,0.3-1.4c0.1-0.7-0.3-0.5-0.2-1.2c0.3,0.1,0.3-0.3,0.3-1c-0.1-2.3,0.3-3.4,0.2-5.8c0.1-0.4,0.1-1.1,0.3-1.4
				c-0.2-1.6,0.2-2.6,0.1-4.8c-0.3-0.2-0.4,0-0.9-0.2c-0.4,1.5-0.6,3.4-0.8,5.5c-0.1,0.9,0.4,0.4,0.3,1.2c0,0.6-0.5,0.1-0.4,1
				c0,1.9-0.1,3.3-0.2,4.6c-0.1,0.8-0.2,1.6-0.2,2.4c0,0.9,0,1.7,0,2.6c0,0.6-0.2,1.2-0.2,1.7c-0.1,1.4-0.1,2.8-0.2,4.1
				c-0.1,1.7,0,3.5-0.3,5c0.1,0.2,0.2,0.6,0.2,1.2c-0.5,1.7-0.5,4.5-0.6,7.2c-0.4,1.4-0.2,3.4-0.4,5c-0.1,0.8-0.3,1.6-0.4,2.4
				c0,0.5-0.1,0.9-0.1,1.4c-0.2,1.9-0.3,4.2-0.5,5.5c-0.1,0.4,0,1.2-0.3,1c-0.3-5.6,0.2-10.1,0.2-15.8c0.1-0.6,0.2-1.4,0.3-1.9
				c-0.1-1.9,0.4-3.4,0.1-4.8c0.4-1.4,0.3-3.4,0.4-5c0-0.5,0.2-1,0.2-1.4c0.2-1.9,0.2-3.8,0.3-5.5c0.1-1.4,0.4-2.8,0.3-4.6
				c0-0.4,0.2-0.2,0.2-0.7c0-2,0.4-2.9,0.3-5c0.2-0.6,0.3-1.8,0.1-2.6c-0.3-1-0.6,0.5-1-0.5c0.2-0.9,0-2.1-0.1-2.9
				c-0.4,0.4-0.3,0.4-0.8,0.2c-0.4,1.3-0.3,2.6-0.4,4.6c-0.1,1.9-0.3,4.2-0.4,5.5c-0.1,1.2,0.1,3.3-0.4,3.6
				c-0.3-0.8,0.1-1.4,0.1-2.2c-0.2-2.4,0.2-5,0.2-7.7c0.3-0.6,0.3-2.2,0-2.9c-0.4,0.1-0.3,0.1-0.8,0.2c-0.5,1.5-0.5,4.1-0.7,6.2
				c-0.1,2.4-0.4,4.7-0.2,6.7c-0.3,0.5-0.2,1-0.1,1.9c-0.3,2.8-0.2,6.5-0.4,9.8c0,0.5-0.2,1-0.2,1.4c-0.1,1.7-0.1,3.6-0.2,5.3
				c0,0.3-0.2,0.7-0.2,1c0,0.5,0,0.9,0,1.4c-0.2,2-0.3,4.3-0.5,6c-0.1,0.9-0.1,1.6-0.2,2.6c0,0.4-0.2,0.8-0.2,1.2
				c-0.1,0.7,0,1.8-0.4,2.2c-0.1-1.6,0.1-3.2,0.2-4.8c0-0.5-0.1-1-0.1-1.4c0.1-3.8,0.4-7.5,0.3-11c0.3-3.3,0.3-6.3,0.2-10.1
				c-0.4-1-0.5,1.5-0.9,0.5c0.1-1.4,0-2.7,0-3.6c0-3.7,0.8-6.7,0.7-11c0.3-1,0.6-2.7,0.5-3.8c-0.4-0.7-0.7,0.4-1.1,0.5
				c-0.2,2.2-0.5,4-0.5,6.7c-0.4,2.1-0.4,4.1-0.6,6.2c-0.1,1-0.3,2-0.4,2.9c-0.1,0.8-0.1,1.5-0.2,1.9c-0.1,0.9-0.1,1.9-0.1,2.9
				c-0.3,1.6-0.4,3.7-0.4,6c-0.6,3.3-0.5,8.3-1.2,11.3c-0.2-3.2-0.1-6.4,0.1-9.4c0.1-1.4,0.2-2.6,0.3-3.6c0-0.6,0-1.3,0-1.9
				c0-0.5,0.1-1.1,0.2-1.7c0.2-1.6,0.1-3,0.2-4.8c0-0.5,0.2-1,0.2-1.4c0.2-3,0.1-6.1,0.3-9.1c0.1-0.7,0.3-1.3,0.4-2.2
				c0-0.6,0-1.1,0-1.9c-0.3-0.5-0.4,0.6-0.9,0c-0.3,0.3-0.3,1.2-0.6,1.4c-0.1,0.6-0.6,0.1-0.6,1c-0.2,0.9-0.3,1.7-0.3,3.1
				c-0.3,0.8-0.3,2.3-0.2,3.4c-0.2,0.8-0.2,1.9-0.2,3.1c-0.4,0.9-0.3,2.3-0.4,3.6c0,0.5-0.1,0.9-0.2,1.4c0,0.3,0,0.7,0,1
				c0,0.1-0.2,0.6-0.2,0.7c-0.1,1.8-0.2,3.7-0.2,4.8c-0.2,0.8-0.4,1.6-0.2,2.6c-0.1,0.4-0.3,0.4-0.3,1c0.1,1.9-0.3,2.6-0.2,4.6
				c-0.3,0.6-0.2,2.7-0.4,3.4c-0.1,0.5,0,1.9-0.4,1.7c-0.3-1-0.1-2.2-0.1-3.4c0-1.9-0.1-4.3-0.1-6.7c0-0.8,0-1.6,0-2.4
				c0-1.8,0-3.2,0.1-4.3c0.1-1.8,0.3-3.3,0.1-5c-1.2-0.4-1,2.2-1.1,4.6c0,1.3-0.2,2.1-0.1,3.6c-0.3,2-0.5,4.5-0.5,7.2
				c-0.1,0.4-0.1,1-0.3,1.2c0,1,0,2.2-0.3,2.6c0,1.1,0.1,2.5-0.4,2.4c-0.2-0.8,0.1-1.8,0.1-2.6c-0.1-3.5,0-8.5,0.2-12.2
				c0.3-0.8,0.4-2.9,0-3.6c-0.4,0.1-0.5,1-0.9,1.2c0.1,1.8-0.5,3.2-0.1,4.6c-0.6,1.5-0.5,4.1-0.7,6.2c0,0.4-0.2,0.6-0.2,1
				c0,0.4,0,0.9,0,1.4c-0.3,1.2-0.4,2.8-0.6,4.3c-0.2,1.5-0.3,3.1-0.5,4.6c-0.3,2.3-0.6,4.5-1,6.2c-0.1,0.4-0.1,1.7-0.5,1.2
				c0.2-3.6,0.1-7.9,0.1-11.5c0.3-1.4,0.3-3.2,0.4-4.8c0.1-1.7,0.3-3.5,0.3-5.3c0.3-1.6,0.4-3.7,0.5-6c0.2-0.7,0.2-1.5,0.3-2.4
				c0.3-2.6,0.5-5.3,0.7-8.2c0.2-0.8,0.3-1.6,0.3-2.9c-0.5-0.6-0.7,0.6-1.2,1c-0.4,1.9-0.2,5.1-0.7,7c0,0.7,0.2,1,0.2,1.7
				c-0.2,1.5-0.3,3-0.4,4.6c-0.2,2.2-0.4,3.9-0.4,6.2c-0.2,1.5-0.4,3.2-0.4,5.3c-0.3,1.1-0.5,2.2-0.5,4.1c-0.2,0.8-0.3,1.9-0.5,2.9
				c-0.2,1-0.2,2.7-0.6,2.9c-0.4-1.7,0-5.2-0.3-7.2c0.1-0.2,0.2-0.5,0.2-1c-0.2-1.9,0.2-5.2,0.1-7c0.2-0.9,0.3-2,0.3-3.4
				c0-0.6,0.3-0.4,0.3-1.2c0-1,0.1-1.7,0.3-2.2c0-2,0.5-4.3,0.1-5.8c-0.7-0.2-0.7,1.1-1.2,1.4c0.1,1.1-0.1,1.7-0.3,2.2
				c0.2,1.9-0.2,3.6-0.2,5.8c-0.2,0.5-0.3,0.9-0.4,1.7c0.1,2.3-0.4,4.2-0.5,6c-0.1,1,0.3,2.5-0.3,2.9c-0.1-2.9,0.1-5.9,0.1-9.1
				c0.3-0.9,0.3-2.5,0.3-4.1c0.2-1.4,0.7-3.2,0.5-4.8c-0.9-0.4-0.9,1.4-1.3,2.2c-0.1,1.5-0.1,2.8-0.3,4.1c-0.1,0.9-0.3,1.7-0.4,2.6
				c-0.1,1-0.2,1.9-0.2,3.1c-0.3,0.3-0.2,1.8-0.5,2.2c0,0.6,0,1.3,0,1.9c-0.2,0.4-0.4,1.2-0.5,1.9c-0.2,1-0.1,2.9-0.7,2.9
				c0-3.8-0.1-7.5,0-11c0.1-2.5,0.5-4.7,0.5-7c0.1-0.6,0.4-1,0.3-2.2c-0.1,0-0.2-0.1-0.2-0.5c-0.5-0.2-0.7,0.4-1,0.7
				c0,0.5-0.2,0.8-0.3,1.2c0,0.3,0.1,0.5,0.1,0.7c0,0-0.2,0.4-0.2,0.5c-0.1,0.9-0.1,2-0.4,2.9c0,1.2-0.1,2.4-0.3,3.1
				c0,0.6,0.2,0.5,0.1,1.2c-0.2,0.4-0.2,1.4-0.4,1.7c-0.1,1.7-0.1,3.6-0.3,5c0,0.3-0.2,0.6-0.3,1c-0.1,0.5,0.1,1.5-0.3,1.2
				c0-0.9-0.2-1.4-0.2-2.4c0-1,0.1-2.2,0.1-2.6c0-0.3-0.1-0.3-0.1-0.7c0-0.4,0.2-0.8,0.2-1.2c0.1-1.5,0-3.1,0.1-4.6
				c0-0.4,0.2-0.8,0.2-1.2c0-0.5,0-1,0-1.4c0.2-2.6,0.8-5.3,0.5-7.9c-0.8,0-1.1,1.2-1.5,2.2c0,1.7-0.4,3.4-0.5,5.3
				c-0.1,1.7,0.1,3.7-0.4,4.8c0,0.6,0,1.3,0,1.9c-0.2,0.8-0.4,1.9-0.4,3.4c-0.2,1.3-0.6,2.8-0.8,3.8c-0.1,0.4,0,1.3-0.3,1.2
				c-0.2-2.2-0.2-5.8-0.2-7.7c0-1,0-2.1,0-3.1c-0.1-2.5,0.3-5.1,0.1-7.4c-0.5-0.7-0.8,0.5-1.3,0.7c-0.2,2-0.6,3.4-0.6,6
				c-0.5,1.4-0.6,4.4-0.9,6c-0.2,0.8-0.3,2-0.6,2.6c-0.2-2.9-0.3-6.1-0.1-8.4c0.1-0.6,0.2-1,0.2-1.2c0-0.4-0.1-0.5-0.1-0.7
				c0-0.3,0.1-0.5,0.1-1c0-0.7,0-1.5,0-2.2c0.1-1.9,0.6-3.9,0.3-6c-0.3-0.1-0.5,0.4-0.8,0.5c-0.4,1.1-0.5,4.1-0.4,5.8
				c-0.1,0.2-0.3,0.4-0.3,1c0,0.6,0,1.3,0,1.9c-0.2,0.4-0.2,1.4-0.2,2.4c-0.4,1.1-0.3,3.5-0.8,4.3c-0.1,1.1,0,2.5-0.5,2.6
				c-0.2-2.8-0.2-5.8-0.5-8.9c0.3-1.2,0.2-3.1,0.2-4.8c0-2,0.4-4.5-0.3-5c-0.6,0.1-0.5,2.1-1.2,2.2c0,1.9-0.5,3.5-0.3,5.3
				c-0.2,1.6-0.4,3.2-0.4,5.3c-0.2,0.5-0.2,1.7-0.5,2.2c0.2,1.6-0.3,3.2-0.5,4.8c-0.3,0.2,0,2-0.5,1.9c-0.4-0.7-0.3-2.4-0.4-3.8
				c-0.2-2.6-0.6-7.1-0.1-9.4c-0.1-1.4-0.1-3.3,0-5c0-1.3,0.3-2.5,0-3.4c-0.5,0-0.9,0.7-1.1,1.7c-0.2,1.1,0,2.7,0.1,4.1
				c-0.2,2.1-0.4,5.2-0.2,7.4c-0.1,0.8-0.4,1.5-0.2,2.4c-0.3,1-0.5,2.2-0.5,3.8c-0.2,0.7-0.4,1.4-0.4,2.6c-0.6,0.9-0.5,3.7-1.2,4.3
				c-0.4-1.2-0.1-2.9-0.1-4.3c0-0.6-0.2-1.1-0.2-1.7c-0.1-2.2-0.1-5.1,0-7.4c0-0.6,0.2-1.2,0.2-1.7c0-0.8,0-1.6,0-2.4
				c0.1-2.1,0.3-4.3,0.3-6.2c0-0.8,0-1.5-0.1-1.7c-0.1-0.1,0.1-0.3,0.1-0.2c0-0.3,0-0.7,0-1c0-0.9-0.1-2-0.3-2.6
				c-0.6-0.1-0.7,1.1-1.2,1.4c0,1.2-0.3,1.9-0.4,2.9c0.2,3.1-0.5,5.6-0.3,9.4c-0.3,1.1-0.3,1.7-0.3,3.1c-0.3,1.3-0.5,2.9-0.6,4.8
				c-0.5,1.3-0.4,3.7-1,4.8c-0.1,0.9-0.2,1.8-0.5,2.4c-0.2,0.9-0.1,2.3-0.8,1.9c-0.1-3.9-0.1-8.1-0.1-12.2c0-0.8,0.3-0.8,0.2-1.7
				c-0.1-2.6,0.3-4.2,0.4-6.5c0-0.6,0.1-1.7,0.1-2.4c0-0.7,0.1-1.9-0.4-1.9c-0.4-0.1-0.2,1-0.5,1.2c-0.1-0.6-0.3,0.7-0.5,0.7
				c-0.2,1.7-0.2,3.8-0.4,5.3c-0.1,1,0.1,1.4,0.1,2.2c-0.2,1-0.4,2.1-0.5,3.4c0,0.4,0,1,0,1.4c-0.1,1-0.3,2-0.4,2.9
				c-0.1,1-0.1,2.4-0.5,2.6c0-0.8-0.3-2.3-0.3-2.9c0-0.5,0.1-0.8,0.1-1.2c0-0.1-0.2-0.6-0.2-0.7c0-0.4,0-0.8,0-1.2
				c-0.1-1.5-0.3-2.8-0.3-3.8c-0.1-2.7,0.2-5.5-0.1-8.4c0-1.2,0.2-1.6-0.1-2.4c-0.7-0.6-0.6,0.9-1.2,1.2c-0.3,1.3-0.2,2.3-0.2,3.6
				c0,3.2-0.7,5.2-0.6,8.2c-0.5,1.6-0.4,4.5-1,5.8c-0.2-1,0-2-0.1-3.1c-0.1-1.2-0.4-2.4-0.4-3.6c0-0.8,0.1-1.6,0.1-2.4
				c0-0.7-0.1-1.2-0.1-1.9c0-0.9,0.2-2.1-0.1-2.9c-0.5-0.2-0.5,0.9-1,1c-0.4,3.3-0.4,7.8-1.2,10.1c-0.2,0.6-0.1,2-0.6,1.9
				c-0.5-0.5-0.6-2.1-0.6-3.8c-0.6-1.8-0.4-5.7-1-7.4c-0.3-0.2-0.5-0.4-0.8-0.2c-0.4,0.2-0.6,1.6-0.8,2.4c-0.2,0.9-0.3,1.2-0.4,2.2
				c-0.1,1.1-0.3,2.3-0.5,3.4c-0.1,0.3-0.1,0.7-0.2,1c-0.2,1.1-0.4,2.7-0.8,2.9c-0.4-0.4-0.7-1.2-1-1.9c-0.1-0.2,0-0.5-0.1-0.7
				c-0.1-0.2-0.2-0.3-0.3-0.5c-0.4-1.3-0.6-2.7-1-4.1c-0.3,0.2-0.4-0.3-0.6-0.2c-0.5,0.1-0.5,1.3-1,1.4c-0.4-0.3-0.6-1.4-0.8-1.9
				c-0.1-0.2-0.1-0.5-0.2-0.7c-0.1-0.2-0.1-0.5-0.2-0.7c-0.2-0.4-0.3-1.2-0.4-1.4c0-0.1,0-0.4-0.1-0.5c-0.1-0.2-0.3-0.1-0.4-0.2
				c-0.1-0.2,0-0.8-0.2-0.7c-0.1-0.5-0.5-0.5-0.6-1.2c-0.7-0.1-1.1-0.6-1.7-0.5c-0.5,0.1-1,1-1.6,0.7c-1-1.3-1.8-3.3-3.1-4.1
				c-0.7-1.6-1.5-2.8-3-2.4c-0.3,0.3-0.6,1.3-1,1.4c-0.8,0.2-1.2-1.2-1.7-1.4c-0.2-0.1-0.6,0.2-0.8,0.2c-0.6,0-1.2-0.3-1.7-0.2
				c-1,0.2-1.8,1.1-2.7,1.4c-0.2,0.4-0.4,0.9-0.9,0.7c-0.2,0.7-0.5,0.9-0.8,1c-0.6,0.9-1.4,1.4-1.9,2.4c-0.2,0.8-0.7,0.6-0.8,1.7
				c0.2,0.5,0.1-0.1,0.3-0.2c0-0.5,0.4-0.1,0.6-0.2c0.3-1,0.8-1.1,1.2-1.4c0.4-0.4,0.9-1.1,1.4-1c0.2-0.8,0.6-0.9,1-1.2
				c0.3-0.3,0.7-0.8,1.1-1c0.8-0.4,1.8-0.3,2.5-0.2c0.8,0.1,1.3,0.2,1.8,0.5c0.2,0.1,0.1,0.9,0.4,0.7c0.2,0,0.4,0,0.7,0
				c0.3,0.1,0.2,1.4,0.5,1.7c0.2-0.2,0.2-1.1,0.6-1c0.1-0.5,0.1-1.5,0.4-1.7c0.2,0.5,0.8,0.2,1.2,0.2c0.3,0.5,0.6,0.8,1.1,1
				c0.5,1.3,1.3,1.8,1.8,2.6c0.2,0.3,0.4,1,0.7,1c0.3,1.1,0.6,2.4,1.3,2.6c0.3-0.1,0.3-0.9,0.6-1.2c0.5,0,0.8-0.7,1.2-0.7
				c0.6-0.1,1.1,1,1.6,1.4c0.5,1.2,0.8,2.7,1.2,3.8c0.2,0.4,0.4,0.6,0.5,1.2c0,0.9,0,1.6,0.1,2.2c0.3,0,0.4,0.7,0.8,0.7
				c0.4-0.5,0.5-1.8,1.2-1.9c0.3,0.7,0.5,1.6,0.7,2.6c0.4,0.6,0.6,1.5,1,2.2c0.1,0.9,0.3,1.7,0.6,2.2c0.4,0.1,0.6-0.2,1-0.2
				c0.7-1.9,1-4.8,1.5-7.2c0-0.4,0-0.8,0-1.2c0.4-0.7,0.3-3,1-3.1c0.1,0.7-0.1,1.2,0.1,2.2c0.4,0.9,0.3,3,0.6,4.1
				c0,1.3,0.1,2.4,0.3,3.4c-0.1,1.6,0.2,2.1,0.5,2.6c1.4-0.2,1.5-3.8,2.2-5.8c0-1.2,0.1-2.1,0.4-2.6c0.1,1.9,0.4,3.4,0.2,5
				c0.1,0.6,0.3,1.1,0.3,1.9c-0.2,1.2-0.3,2.6,0.1,3.4c0.7,0.1,1-1.5,1.3-2.9c0.2-1.2,0.4-2.7,0.6-3.8c0-0.1,0.2-0.4,0.2-0.5
				c0.1-1.3,0.2-3.5,0.3-4.6c0.2-1.8,0.3-3.8,0.5-5.5c0-1.2-0.2-2.2,0.3-2.4c0.1,2.4-0.1,4.8-0.1,7.2c0,1.8,0.3,4.1,0.3,6
				c0,0.6-0.1,1-0.1,1.4c0.1,1.2,0.4,2.9,0.3,3.6c0,0.2,0.1,0.4,0.1,0.5c0,0.4,0,0.6,0,1c0.1,0.8,0.1,1.4,0.2,2.2
				c0.6,0,0.8-0.8,1.2-1.2c0.2-1.6,0.3-3.2,0.7-4.3c0-1.5,0.2-2.5,0.4-3.4c0.2,3.3-0.5,6.9,0.1,9.8c-0.2,1.4-0.2,3.6,0.4,3.8
				c0.5,0.2,0.7-1.1,0.9-1.4c0.6-1.2,1-3.8,1.2-5c0.7-3.3,1-6.3,1.4-8.4c0-0.6,0-1.1,0-1.7c0.2-1.1,0.5-2.3,0.6-3.8
				c0.1-0.8,0-1.8,0-2.6c0-0.6,0.2-1.1,0.2-1.7c0.2-2.4-0.1-5.4,0.5-7c0.3,1.5-0.1,3.1-0.2,4.3c0.3,4.4-0.6,9.3-0.2,13.9
				c-0.5,1.3,0.1,3.9-0.2,5.5c0.3,1.2,0.3,2.9,0.2,4.3c0.2,0.5,0.3,1.3,0.7,1.4c0.4-0.1,0.8-1.4,1-1.9c0.1-0.4,0.2-0.8,0.3-1.2
				c0-0.1,0.2-0.3,0.2-0.5c0.3-1.5,0.5-3.6,1-4.8c0.1-1.1,0.1-2.2,0.4-2.9c0.2,1.3,0.3,3,0.6,4.1c-0.1,0.4-0.2,1.1-0.2,1.9
				c0.2,0.2,0,1.6,0.4,1.4c0.1,0.5,0.5-0.5,0.8-0.5c0.3-1.3,0.5-2.8,0.9-3.8c0.1-2.5,0.7-3.9,0.8-6.7c0.4-1.3,0.5-3.2,0.5-5.5
				c0.3-0.6,0-2.9,0.5-3.1c0.1,1.6-0.1,3.6-0.1,5.8c0,0.4,0.1,1,0.1,1.4c0.1,3.4-0.3,6.7,0.2,9.1c0.5,0.2,0.7-0.3,1.1-0.5
				c0.4-1.2,0.7-2.8,1-4.1c0.1-0.4,0.1-1.3,0.4-1.2c0.3,1.3-0.1,4,0.2,5.3c-0.3,0.8-0.3,2.9,0.2,3.1c0.7-0.3,0.8-2,1.3-2.9
				c0.1-2.5,0.8-3.7,0.8-6.5c0.3-0.9,0.4-2.6,0.6-3.4c0.1-0.2,0.2-0.3,0.2-0.5c0.1-0.3,0-1.3,0.3-1.2c0,3.1-0.5,9.2,0.1,11.8
				c-0.2,1.2,0,2.7,0.2,3.6c0.3,0.2,0.5-0.3,1-0.2c0.5-2.1,0.8-5,1.3-7.2c0-0.6,0-1.1,0-1.7c0.4-1.1,0.3-3.4,0.7-4.6
				c0.1-0.5-0.2-1.9,0.2-1.7c-0.1,3.4-0.2,5.2-0.5,7.9c0.3,0.2,0,1.4,0,2.2c0.3,1.4,0.1,2.8,0.3,4.3c-0.1,0.6-0.5,1.7-0.2,2.6
				c0.4,0.5,0.4-0.4,0.9-0.2c0.6-2.2,1.1-5.3,1.4-8.2c0-0.3,0-0.7,0-1c0-0.1,0.2-0.4,0.2-0.5c0-0.3-0.2-1.5,0.2-1.2
				c0.2,3.2-0.4,5.4,0.1,7.4c-0.3,1.3-0.4,3,0.1,4.1c0.4,0.2,0.5-0.5,0.8-0.5c0.7-2.3,1.3-5.6,1.7-8.4c0.1-0.4-0.1-1.4,0.3-1.2
				c0.3,0.2,0.1,0.9,0.1,1.4c0,0.5-0.2,1.3-0.2,1.9c0,0.5,0.1,1.2,0.1,1.9c0,1.8-0.2,3.2,0.2,4.1c0.6,0.2,0.7-1.2,1.1-1.7
				c0-1.2,0-2.2,0.4-2.4c0,2.4,0.2,4.5,0.2,7.7c0,1-0.3,1.4-0.1,2.4c0.4,0.4,0.5-0.2,1-0.2c0.2-0.3,0.2-1.2,0.3-1.7
				c0-0.2,0.2-0.3,0.3-0.5c0.1-0.4,0-0.8,0.1-1.2c0.1-0.5,0.2-1.2,0.3-1.7c0.1-0.5,0-1.7,0.4-1.7c0.2,0.6-0.1,1.6-0.1,2.6
				c0.1,2.8-0.3,6,0.1,7.9c0.2-0.2,0.5-0.3,0.9-0.2c0.4-0.8,0.4-2.3,0.9-2.9c-0.1-0.6,0.1-0.9,0.2-1.4c0.2-1.1,0.2-1.9,0.4-2.9
				c0.1-0.4,0.2-0.8,0.3-1.2c0.1-0.5,0.1-1.2,0.1-1.7c0.1-1.6,0.2-3.2,0.6-4.6c-0.1-0.9,0.1-1.8,0.2-2.6c0.1-0.8,0-2.3,0.5-2.2
				c-0.1,1.9,0.1,3.6,0.1,5c0,1.1-0.3,1.9-0.3,3.1c0.3,0.7,0.4,0.5,0.8,0.7c1-1.9,1-6.4,1.6-9.4c0.3,2.4-0.1,4.9,0,7.4
				c0,1.1,0.3,2.2,0.2,3.4c0.1,0.7,0.5,0.6,0.6,1.2c0.1,0.5,0.2,1,0.2,1.9c0.4-0.3,0.3,0.8,0.6,0.7c0.7-0.6,0.7-2.9,1.3-3.8
				c0-1.2,0.2-2.7,0.4-3.4c0.1-0.3,0.1-0.9,0.3-0.7c-0.1,2,0,3.8,0.3,5c0.2,0.8,0.6-1,0.8,0.2c-0.2,1.4-0.2,3.3-0.6,4.3
				c-0.1,0.7,0.2,0.7,0.1,1.4c-0.1,1.9-0.9,6.3,0.2,7c0.7-0.8,0.7-3.7,1-5c0.4-2.4,0.7-4.8,0.6-8.2c0.3,0,0-1.6,0.4-1.4
				c0,2.7,0.1,5.5,0.4,7.9c0.2,0.7,0.3,0.1,0.6,0.5c0.1,0.7,0.1,1.7,0.5,1.7c0.5-0.5,0.8-1.7,0.9-3.4c0.4-1,0.2-3.2,0.7-4.1
				c0.4,0.8,0,1,0,2.2c-0.1,2.2-0.7,6.5,0.1,7.9c0.5-0.2,0.8-1.1,0.8-2.6c0.4-0.7,0.3-2.3,0.6-3.4c0.3-1,0.3-2.4,0.4-3.8
				c0-0.3,0.2-0.5,0.2-0.7c0.1-1.2-0.1-2.5,0.3-2.9c0.5,1.4-0.2,3.4,0,5.5c-0.1,0.5-0.2,0.9-0.2,1.4c0,0.9,0.1,2.4,0.1,2.6
				c0,0.3-0.1,0.3-0.1,0.7c0.1,1.1,0.2,2.3,0.4,3.1c1.1,0,1.2-3.3,1.4-5c0.1-0.6,0.1-1.7,0.4-1.4c0,1.7-0.3,3.6-0.3,5.3
				c0,0.3,0.1,0.6,0.1,0.7c0,0.3-0.1,0.4-0.1,1c0,0.5,0.2,1.7,0.5,1.7c0.4,0.3,0.4-0.4,0.5-0.7c0.1-0.2,0.3-0.7,0.4-1
				c0.1-0.3,0-0.7,0-1c0-0.1,0.2-0.5,0.2-0.7c0.1-0.6-0.1-1.4,0.2-1.7c0.4,0.2,0.2,2,0.7,2.2c0.8-0.2,0.8-2.6,1.2-3.8
				c0-0.5,0-1,0-1.4c0.4-0.6,0.2-2.5,0.7-2.9c0.2,1-0.1,2.2-0.1,3.6c0,1,0.1,2.1,0.1,3.4c0,1.3-0.2,2.8-0.1,3.6
				c0.1,0.9,0.3,1.6,0.5,2.2c0.6-0.1,0.8-1.4,1-2.4c0.1-0.8,0-1.1,0.1-1.7c0-0.1,0.2-0.4,0.2-0.5c0.2-2.1,0.1-4.9,0.7-6.2
				c0,1.4,0.1,2.5,0.3,3.6c0.9,0.3,0.8-2.1,1.3-2.9c0.2-0.6-0.1-2,0.4-1.9c-0.2,0.5,0,0.9,0.1,1.4c-0.3,2.5-0.5,6.7,0.1,8.6
				c0.3,0.2,0.4-0.1,0.5-0.2c0.1-0.1,0.3,0,0.4-0.2c0-0.1,0-0.4,0-0.5c0.2-0.5,0.2-0.8,0.3-1.4c0-0.3,0.2-0.3,0.2-0.5
				c0.1-0.7,0.2-1.7,0.3-2.4c0.1-0.8,0.1-1.7,0.4-2.2c0.2,1.9-0.2,4.1,0,6c0.2,0.2,0,1.6,0.4,1.4c0.5,0.4,0.7-2.1,1.2-2.6
				c0.5,0.3,0.5-0.7,0.9-1c0.2-0.9,0.3-2.3,0.4-2.9c0.1-0.6,0.2-1.6,0.5-1.4c0.2,1.8-0.3,5.7,0.4,7c0.8,0.1,0.7-2.2,1.2-3.1
				c0.1-3,0.6-4.8,0.8-7.4c0.2,0.9,0.5,1.9,0.6,2.9c0,0.5-0.1,1.2-0.1,1.7c-0.1,0.7-0.1,1.5-0.2,2.2c0.2,0.9,0.2,2.3,0.4,3.4
				c1-0.7,0.9-2.5,1.2-4.8c0.2-1.6,0.4-3.2,0.5-4.8c0.4,0.3,0.6,1.6,0.7,2.6c0,0.7-0.1,1.3-0.1,2.2c-0.1,2.7,0.2,4.9,0.3,6.7
				c0.3,0,0.5,0,0.8,0c0.9-3.9,0.8-10,1.6-13.9c0.1-2.7,0.5-4.8,0.8-7c0.2-0.6,0-2,0.5-1.9c-0.1,1.6,0,3.6-0.1,5.5
				c0,0.4-0.1,0.5-0.2,1c-0.2,1.2,0,2,0,3.1c0.1,3.2-0.1,8.9,0.2,10.8c0.1,0.6,0.1,2,0.5,1.9c1-0.5,1.1-3.4,1.5-5.5
				c0.6,0.1,0.9-0.5,1.2-1c0.4,0.8,0.7,1.5,1.3,1c0.2-0.8,0.2-1.8,0.5-2.4c0.2-3.7,0.6-7.4,0.9-10.8c0.1-1.2,0-2.7,0.4-3.6
				c0.1,2.3,0.3,5.2,0.1,7.7c0,0.6-0.2,1.1-0.2,1.7c0,1.6,0.2,2.3,0.4,3.1c0.1,0.4-0.1,1.6,0.3,1.2c0.7-0.1,0.7-1.9,0.9-2.9
				c0.1-0.3,0-1.3,0.3-1.2c0,1,0,2-0.2,2.4c0.4,3.2-0.7,8.2,0.2,10.6c0,0.5-0.1,1.4,0.2,1.2c1,0.2,0.5-3.2,1.1-4.1
				c0-1.5,0.2-3.7,0.4-4.6c0.1-0.4,0.1-0.6,0.1-1c0.1-2.3-0.2-4.9,0.6-6c0.2,1,0.5,1.9,0.5,3.6c0.4,0.2,0.6-0.4,1-0.5
				c0.2-1.3,0.2-3,0.4-4.3c0.2,1.7,0.2,4.5-0.1,6.2c0.4,1.1-0.2,4.6,0.9,4.1c0.6-2,0.6-5.6,1-8.2c0.4-0.4,0.5-0.2,0.9-0.7
				c0.4-1.2,0-4.4,0.4-5.3c0.5,0.4,0,1.9,0.1,3.1c0,0.8,0.2,1.3,0.3,1.9c0.3,0.1,0.5-0.1,0.8-0.2c0.3-1,0.3-2.5,0.4-3.8
				c0.1-1.3,0.3-2.5,0.4-3.8c0-0.4,0-1,0-1.4c0-0.6,0.2-1.1,0.2-1.7c0.1-1.8,0.2-3.7,0.3-5.3c0-0.5-0.1-1.4,0.3-1.4
				c0.2,0.8,0,2-0.1,2.6c0.2,0.3,0.2,1.3,0.2,2.2c-0.1,0.5-0.2,1.1-0.2,1.7c-0.1,2.3-0.1,5.6,0,8.2c0,0.5,0.2,1,0.2,1.4
				c0,0.8-0.2,1.1-0.1,1.7c0.3,0.2,0.2,1.2,0.4,1.7c0.3,0.1,0.4-0.4,0.8-0.2c0.3-2,0.5-5.3,0.7-6.7c0.2-2.8,0.2-5.1,0.5-7
				c0-0.8-0.2-0.8-0.1-1.7c0.5-2,0.1-5.7,0.6-8.2c0-2.3,0-5.3,0.1-7.9c0-0.5,0.2-1,0.2-1.4c0-0.5-0.1-1.1-0.1-1.7
				c0-0.5,0.1-1.1,0.2-1.4c0.3,0.4,0.2,1.8,0.1,2.9c0.4,1.2-0.1,3.3,0.3,4.3c-0.5,1.9-0.2,5.2-0.2,7.4c0,0.6-0.3,0.4-0.3,1.2
				c0,0.5,0.3,0.4,0.2,1.2c-0.2,1.2-0.2,2.9-0.3,4.6c0,1.3-0.1,2.8-0.1,3.8c0,0.9,0.1,1.6,0.2,2.2c-0.4,1.1-0.1,3-0.1,5
				c0,0.5-0.1,0.9-0.1,1.4c-0.1,3.6-0.1,6.6,0.5,8.6c0.3,0.2,0.4-0.4,0.7-0.2c0.3-1.5,0.5-3.4,0.7-5.3c0.1-0.9,0.2-1.8,0.3-2.6
				c0.1-1.1,0-2.2,0.1-3.4c0.1-1.6,0.4-3.2,0.4-4.8c0-0.3-0.1-0.9-0.1-1.2c0.3-1.4,0.3-3.7,0.4-5.5c0-0.8-0.2-2,0.2-2.4
				c0.2,1.2,0.2,2.4-0.1,3.4c0.1,0.2,0.3,0.4,0.3,1c-0.3,1.2-0.4,3.2-0.2,5c-0.3,0.7-0.1,1.9-0.1,3.1c0,1.1,0,1.9,0,2.9
				c0,1.1-0.1,2.3-0.1,3.4c0,1.8,0.3,3.5,0.5,4.8c0.5,0.2,0.6-0.5,0.9-0.7c0.2-1.8,0.4-3.8,0.5-5.3c0.1-0.8,0-1.4,0.1-2.2
				c0-0.3,0.2-0.5,0.2-0.7c0-0.4,0-0.8,0-1.2c0.1-1.4,0.3-3,0.4-4.6c0.1-1.4,0.1-2.9,0.2-4.3c0.1-1.5,0.2-2.9,0.2-4.3
				c0.1-3.2,0.3-5.2,0.2-7.9c0.3-1.2,0.1-2.6,0.2-4.3c0-1.2,0-2.9,0.4-3.1c0.2,2.8,0.1,5.3,0.1,8.6c0,0.7-0.2,0.7-0.2,1.4
				c0.3,0.9-0.1,1.9,0,3.1c-0.1,1,0.3,1,0.2,1.9c-0.1,0.3-0.2,0.7-0.3,1.2c0,0.4,0.1,0.5,0.1,1c0,0-0.2,0.2-0.2,0.2
				c-0.2,1,0.1,2.4,0.1,3.4c-0.3,0.9-0.1,1.6,0,2.6c-0.2,0.3-0.2,1.1-0.3,1.7c0.1,3.3-0.2,5.6,0.1,7.2c-0.1,0.2-0.4,0.2-0.3,1
				c0.1,3.1-0.2,7,0.3,9.1c0.4,0.2,0.4-0.4,0.8-0.2c0.2-0.7,0.4-1.7,0.3-3.1c0.4-0.8,0.4-2.2,0.5-3.4c0.1-1.2,0.3-2.3,0.4-3.6
				c0-0.4,0-1,0-1.4c0.1-0.7,0.2-1.2,0.3-1.9c0.1-0.9,0-2,0.1-2.9c0.1-0.8,0.2-1.6,0.3-2.4c0.1-2.2,0.1-4.7,0.2-7
				c0-0.9,0.3-2.5,0.3-3.1c0-0.2-0.1-0.3-0.1-0.5c0.1-1.3,0.2-2.6,0.3-3.8c0.1-1.8,0-3.2,0.1-4.6c0.1-1.6,0.2-2.7,0.3-3.6
				c0-0.4-0.1-1.3,0.2-1.4c0.4,0.6,0.3,2.4,0.3,3.8c0,2.8-0.1,5.7,0,7.4c-0.2,0.6-0.2,1.4-0.2,2.2c0,0.7,0.2,1.2,0.2,1.9
				c0,0.4-0.1,1.5-0.1,1.9c0,0.3-0.1,0.9-0.3,1c0,0.8,0.3,0.8,0.2,1.7c-0.1,0.4-0.3,0.6-0.3,1.4c-0.1,1.3,0.1,2.3,0.2,3.1
				c0,0.4-0.3,0.2-0.2,1c0.2,2.7-0.1,5.9,0.1,8.9c-0.1,0.5-0.2,0.7-0.2,1.4c0.2,1,0.3,2,0.4,3.4c1.1,0.5,1.1-2,1.2-3.6
				c0.1-0.7,0.2-1.5,0.3-2.2c0.1-1,0.1-2.1,0.4-2.6c0.1-0.9,0-1.8,0.1-2.6c0-0.3,0.2-0.6,0.2-1c0-0.4,0-1,0-1.4
				c0.1-1.9,0.3-3.5,0.4-5.3c0-0.9,0-2,0.1-2.9c0-0.5,0.2-0.7,0.2-1.2c0.1-1.6,0-3.3,0.1-5c0.1-1.1,0.3-2.1,0.3-3.1
				c0-0.6,0-1.1,0-1.7c0-0.6,0.2-1.3,0.2-1.9c0.1-2.1-0.1-3.5,0.4-4.3c0.3,4.3-0.1,8.8-0.3,12.7c0,1,0.1,1.6,0.2,2.2
				c-0.5,0.3-0.2,2.6-0.5,3.4c0.1,0.7,0.1,1.9,0.2,2.6c-0.2,0.6-0.2,1.4-0.3,2.2c0.2,3.1-0.6,7.4,0.1,10.3c0.3-0.2,0.6-0.3,0.9-0.5
				c0.2-0.9,0.1-1.8,0.2-2.6c0.4-3.2,0.9-6.8,1.1-10.1c0.2-3.4,0.4-6.4,0.6-9.6c0.1-1.3,0.2-2.6,0.3-3.8c0.2-2.7,0.3-5.9,0.6-7.9
				c0-0.8,0-1.5,0.1-2.2c0.1-0.5,0.2-1.4,0.4-1.4c0.4,0.4,0.1,2.4,0.2,3.6c0,0.6,0.1,1,0.2,1.4c-0.4,1.4,0.1,3.2-0.3,4.6
				c0.2,1.5,0.1,2.9-0.1,3.8c0,0.6,0.2,0.7,0.2,1.2c-0.4,0-0.2,1.5-0.4,1.9c0.3,1.9,0.2,4.5-0.1,6.5c0.3,2.3-0.5,5.5,0.1,7.7
				c0,0.6-0.3,0.4-0.3,1.2c0.2,1.2,0,2.7,0.1,4.1c0,0.3,0.2,0.6,0.2,1c0.1,0.6-0.1,1.1,0.1,1.4c1-0.2,1.2-2.4,1.3-4.8
				c0.4-1.3,0.4-2.7,0.5-4.1c0.1-1.1,0.2-2,0.3-3.1c0.2-2.2,0.3-4.3,0.6-6.2c0.1-2.4,0.3-4.8,0.5-7.4c0-0.6,0.1-1.3,0.1-1.9
				c0.1-2.1,0.4-3.8,0.5-5.5c0.1-1.2-0.3-2.9,0.4-3.4c0.1,3.8-0.3,6.4-0.2,10.1c0,0.4-0.2,0.9-0.2,1.4c0,0.3,0.1,0.5,0.1,0.7
				c0,2-0.4,4.6-0.1,6.2c-0.3,0.5-0.2,1.7-0.1,2.6c-0.5,0.4,0,1.7,0,1.9c0,0-0.2,0.4-0.2,0.5c-0.2,0.9-0.1,3.6-0.1,4.3
				c0,0-0.1,0.5-0.1,0.7c-0.1,1.8-0.2,5.3-0.1,7c0,0.4,0.2,1.5,0.4,1.4c0.7,0.2,0.9-1.9,1.1-3.1c0.3-2,0.5-3.9,0.7-6
				c0-0.5,0.2-1.2,0.2-1.7c0.1-0.8,0-1.6,0.1-2.4c0.1-0.8,0.2-1.6,0.3-2.4c0.1-1.4,0.1-2.9,0.2-4.3c0.1-1.1,0.3-2.2,0.4-3.4
				c0-0.6,0.1-1.3,0.1-1.9c0.1-1.5,0.2-3.9,0.4-5c0-1.2-0.1-2.8,0.4-2.9c0.2,2.6-0.2,5.6,0.1,8.2c0,0.6-0.1,0.8-0.3,1
				c0,0.6,0.2,0.7,0.1,1.4c-0.4,1.6-0.2,3.7-0.2,6c-0.1,0.7-0.2,1.2-0.3,1.9c-0.1,1,0.3,1,0.2,1.9c-0.4,1-0.2,2.5-0.2,3.6
				c0,1.6-0.3,3.3,0,4.3c-0.2,0.8-0.3,2.5-0.2,3.8c0,0.7,0.2,1.7,0.4,1.7c0.8,0.3,0.9-2.1,1.1-3.4c0.1-0.4,0-0.7,0.1-1.2
				c0.1-0.7,0.2-1.4,0.3-2.2c0.1-0.4,0.2-0.9,0.2-1.2c0-0.5,0-1.2,0-1.7c0-0.6,0.2-1.3,0.3-1.9c0.2-1.7,0.3-3.3,0.4-4.8
				c0.1-1.3,0.1-2.5,0.2-3.8c0-0.5,0.2-0.9,0.2-1.4c0.1-1.5,0.1-3.3,0.2-4.8c0-0.5,0.2-0.9,0.2-1.4c0.1-1.3-0.1-2.7,0.3-3.8
				c-0.1-1.1-0.1-2.4,0.4-2.6c0.1,4.7-0.2,10.1-0.2,14.6c-0.1,0.4-0.2,0.6-0.2,1.2c-0.1,1.5-0.1,3.6,0,4.8c-0.3,1.2-0.1,2.9-0.2,4.8
				c-0.1,1.7-0.3,3.1-0.2,4.3c0,0.6,0.3,1.5,0.3,2.2c0.3-0.1,0.7,0,0.7-0.7c0.2-0.4,0.2-1.2,0.4-1.4c-0.1-1.2,0.2-1.7,0.1-2.9
				c0.4-0.7,0.3-2.5,0.6-3.6c0-0.6,0-1.3,0-1.9c0.2-1.3,0.4-2.8,0.4-4.8c0.1-0.6,0.3-0.9,0.3-1.7c0.3-4,0.4-8.3,0.9-11.8
				c-0.1-1.2-0.1-2.8,0-3.8c0.1-0.6,0.2-1.5,0.4-1.4c0.6,0.3,0.2,1.4,0.2,2.4c0.3,3-0.1,7.2,0.1,9.4c-0.3,1.1-0.3,2.5-0.3,3.8
				c0,1,0,1.9,0,2.9c0,1-0.2,2.2-0.2,3.4c0,1.4,0.1,2.9,0,4.3c0,0.6-0.2,1-0.2,1.7c0,0.7,0,1.5-0.1,2.2c0.1,0.3,0.2,0.7,0.3,1
				c0,0.5-0.1,1.4,0.2,1.2c0.2,0,0.3,0,0.5,0c0.4-0.9,0.4-2.3,0.5-3.6c0.2-1.9,0.5-3.5,0.5-5.5c0.1-0.4,0.1-1.1,0.3-1.4
				c0-0.6-0.2-0.7-0.1-1.4c0.4-3,0.6-6.7,0.7-10.6c0.5-1.6,0-5.7,0.6-7.2c0.3,5.9-0.1,10.7-0.3,15.6c-0.1,2,0,4.1-0.1,6
				c0,0.7-0.2,1.3-0.2,1.9c-0.1,2.3-0.2,4.9,0.2,7.2c0.6,0.1,0.8-0.9,0.9-2.2c0.3-2.5,0.6-5.1,0.8-7.7c0.1-1.4,0.1-3.1,0.2-4.1
				c0.2-2.2,0.3-4.6,0.5-7c0.2-2.4,0.4-4.9,0.4-7.4c0.2-0.6,0.2-1.4,0.3-2.2c0-1.5-0.1-3.2,0.4-3.6c0.3,1.1,0.2,2.5,0.2,3.8
				c0,4.7-0.3,9.3-0.2,13c-0.4,1.8-0.2,3.6-0.2,5.3c0,0.6-0.2,0.9-0.2,1.2c0,0,0.2,0.4,0.2,0.7c0.1,1.4-0.1,2-0.2,2.9
				c0,0.3,0.1,0.9,0.1,1.2c0,0.9-0.2,2-0.2,2.9c0,0.5,0.1,1.2,0.1,1.7c0.1,1.8-0.2,3.7,0.3,5.3c0.3-0.1,0.4-0.3,0.6-0.7
				c0.3-0.8,0.5-2,0.6-2.9c0-0.4,0-0.8,0-1.2c0-0.2,0.2-0.3,0.2-0.7c0-0.4,0-0.8,0-1.2c0.5-2,0.5-5.3,0.9-7.7
				c0.1-3.6,0.6-6.1,0.6-9.8c0.4-1.3,0.2-3.3,0.4-5c0.1-0.7,0.2-1.4,0.3-2.2c0.1-1.8,0.1-3.5,0.3-4.6c0.1-0.3,0.2-1.1,0.4-1
				c0.3,1.1,0.2,3.1,0.2,4.8c0,2-0.1,3.9,0.1,5.3c-0.3,2.6,0,6.8-0.3,10.1c0,0.7,0.2,1,0.2,1.7c-0.1,0.7-0.3,1.2-0.4,1.9
				c0.3,2.5-0.1,5.2,0,7.7c0,0.4,0.2,0.7,0.2,1.2c0.1,1.1,0,1.8,0.1,2.2c0.1,0.4,0.1,1.1,0.2,1.4c0.4,0.1,0.6-0.5,0.9-0.7
				c0.2-1.6,0.3-3.3,0.5-4.6c0-0.3,0-0.7,0-1c0-0.2,0.2-0.3,0.2-0.7c0.1-0.9,0-1.9,0.1-2.9c0-0.4,0.2-1,0.2-1.4
				c0.2-2.3,0.3-4.6,0.3-7c0.1-0.6,0.3-0.9,0.3-1.7c0-2.2,0-4.3,0.4-5.5c0.1,1.1-0.1,2.2-0.1,3.6c0,1.4,0.1,3.1,0,4.6
				c-0.1,1.4-0.4,2.9-0.1,4.3c-0.1,0.9-0.2,2.2-0.2,3.6c-0.1,2.9-0.2,6.1,0.3,7.9c0.4,0.2,0.5-0.4,0.9-0.2c0.2,0.9,0,2.8,0.6,2.9
				c0.6,0.1,0.6-1.3,0.8-2.2c0.2-1.1,0.3-2.3,0.4-3.4c0.1-1.1,0.3-2.2,0.4-3.4c0.1-1.3,0.1-2.6,0.2-3.8c0.1-1.1,0.3-2,0.4-3.1
				c0-0.6,0-1.4,0-1.9c0-1.4,0.2-2.9,0.3-4.3c0.2-2.6,0.2-5.6,0.5-7.7c0.1-0.4-0.1-1.4,0.3-1.2c0.2,0.9,0,1.7,0,1.9
				c0,0.5,0.3,0.3,0.2,1c-0.3,0.9-0.2,2.2-0.2,3.4c0,1-0.2,2.1-0.2,3.1c0,0.3,0.1,0.4,0.1,1c0,1.3-0.2,2.6-0.2,3.8
				c0,0.4,0.1,0.5,0.1,0.7c0,0.5-0.1,0.5-0.1,1c0,1.9-0.2,3.3-0.2,4.6c-0.1,2.3,0.1,3.9,0.3,5.3c1,0.3,0.9-1.9,1-3.8
				c0.4-1.5,0.2-3.5,0.4-4.8c0.1-1,0.2-2.1,0.3-3.1c0.1-1.6,0.1-3.5,0.2-4.8c0-0.4,0.2-0.8,0.2-1.2c0-0.7,0-1.2,0-1.9
				c0-1,0.2-2,0.3-3.1c0.1-1.9,0.2-3.6,0.2-5.5c0.2-1.1,0.3-3.7,0.3-4.6c0.1-1.1,0-2.9,0.5-3.1c0.2,2.2-0.1,4.5-0.2,7
				c0,0.4,0.1,0.5,0.1,0.7c0,0.3-0.1,0.5-0.1,0.7c0,2.3-0.1,3.7-0.2,5.5c0,0.6,0,1.3,0,1.9c-0.1,2.3-0.3,4.6-0.4,6.7
				c0,1.1,0.1,2.1,0,3.1c0,0.6-0.2,1.1-0.2,1.7c0,0.6,0.1,1.2,0.1,1.2c0,0.2-0.1,0.3-0.1,0.2c0,1.1,0,1.8,0.1,2.2
				c0.1,1,0.1,1.4,0.5,1.7c0.7-0.4,0.5-2.2,0.6-3.8c0-0.6,0.1-1.2,0.2-1.7c0.1-0.6,0-1.7,0.3-1.7c0.1,3.6-0.6,6.6,0,9.4
				c0.4,0.2,0.5-0.6,0.8-0.7c0.3-5.1,0.8-10.3,0.9-15.4c0.1-0.3,0.2-0.6,0.2-1c0.1-1.5,0.2-3.5,0.3-5.3c0.1-1.9,0-4,0.5-4.8
				c0.4,1,0,1.7-0.1,2.9c0.2,1.4-0.1,2.7-0.2,4.3c-0.1,1.7-0.1,3.7,0,5.3c-0.1,0.4-0.2,0.7-0.2,1.2c-0.2,2.7-0.1,6.1,0.1,8.6
				c0.4,0.2,0.5-0.4,0.9-0.2c0.2-0.9,0.1-2.7,0.8-2.4c0.2,0.6,0,2,0.3,2.4c0.4,0.2,0.6-0.3,0.9-0.5c0.1-1.2,0.3-2.1,0.3-3.6
				c0.4-0.8,0.5-2.3,1.1-2.9c0.1-2.1,0.6-3.2,0.6-5.5c0.5-0.4,0.2-2.8,0.8-3.1c0.6,0.6,0.2,2.4,0.1,3.8c-0.1,1.3,0.1,2.7-0.2,3.6
				c-0.1,0.9,0.2,0.9,0.2,1.7c0,0.6-0.4,0.2-0.3,1c0.1,1.1-0.2,1.5-0.1,2.6c-0.3,1.1-0.8,5.4,0,6c0.5,0,0.6-1.3,0.8-2.2
				c0-0.1,0.2-0.3,0.2-0.5c0-0.3,0-0.7,0-1c0-0.1,0.2-0.3,0.2-0.5c0.2-1,0.3-1.9,0.6-2.4c0.3-0.5,0.1-1.2,0.2-1.7
				c0.2,0.1,0.4,0.5,0.6,0c-0.1-1,0.2-1.7,0.2-1.9c0.1-1.2,0-3.1,0.5-2.6c-0.2,1.4,0,3,0,4.6c0,1.8-0.3,3.7,0.1,5
				c0.4,0.2,0.5-0.4,0.7-1c0.1-0.6,0.5-0.7,0.6-1.4c-0.1-1.2-0.1-2.4,0.3-2.9c0.1,0.7,0.3-0.3,0.4-0.2c0.3,0.7,0.2,2.3,0.4,3.1
				c0.2-0.1,0.4-0.5,0.6,0c0.2-0.5,0.3-1.3,0.5-2.2c0.2-0.8,0.1-2.3,0.5-1.9c0.3,1.4-0.2,3-0.2,4.3c0,0.8,0.2,1.3,0.3,1.9
				c1-0.3,0.9-3.6,1.2-6c0.4-0.6,0.2-2.6,0.6-3.4c0.1-1.5-0.1-3.5,0.7-3.4c0.3,0.9-0.3,2.3,0,3.1c0.4-0.2,0.4-0.1,0.8-0.2
				c0.1-1.7,0.3-3.3,0.6-4.6c-0.2-1.6,0-2.8,0.1-3.8c0.2-1.8,0.1-3.8,0.7-4.3c0,0.6,0.1,1.1,0.2,1.4c-0.1,0.6-0.4,0.5-0.3,1.4
				c0.1,1.1-0.2,1.5-0.1,2.6c0,0.8,0.4-0.6,0.4,0.2c0,0.6,0,1.2,0.1,1.4c0.4,0.3,0.4,0.1,0.9,0c0,0.7,0,1.3,0.3,1.2
				c0.5-0.1,0.7-0.7,0.9-1.7c0.2-0.8,0.6-1.2,0.7-2.4c0.4,0.3,0.3-0.7,0.5-1.2c0.3-0.3,0.5-1.1,0.8-1.7c0.2-0.5,0.5-1.4,0.9-1
				c0.3,0.3-0.3,1.3,0,1.7c0.4,0.2,0.4-0.5,0.7-0.5c0.1-0.4,0.1-1.6,0.4-1c0.2,0.9-0.1,1.1-0.1,2.2c-0.2,0.6-0.4,0.2-0.6,0.5
				c0,0.5-0.1,0.8-0.3,0.7c-0.2,0.3,0.2,0.7-0.1,1c-0.5-0.2-0.3,1.9-0.8,1.2c-0.2,0.5,0.1,0.4,0,1.2c-0.2,0.4-0.6,0-0.5,1.2
				c0.5,0.1,0.5-0.9,0.7-1.4c0.2-0.5,0.5-0.7,0.7-1.4c0.3-0.8,0.5-1.7,1-2.2c0.2-0.1,0-1.1,0.3-1c0.8-0.8,1.4-2.2,2.4-2.4
				c0.4-0.9,1-1.3,1.3-2.2c0.2,0.1,0.2,0.5,0.5,0.5c0-0.7,0.3-0.5,0.5-0.7c0.4-0.6,0.6-1.7,1-2.2c0.2-0.8,0.3-1.8,0.8-1.9
				c-0.1-1.9,0.9-2.1,0.6-3.6c-0.6-0.5-0.3,1.1-0.7,1.2c-0.2,0.6-0.4-0.1-0.7,0c-0.1,0.1-0.4,1-0.5,0.5c-0.4-0.3-0.3,0.8-0.7,0.7
				c-0.3-0.4-0.5,0.1-0.8,0.5c0-0.5-0.2-0.5-0.5-0.5c-0.2,0.5-0.5,1-0.9,1.2c-0.2,0.3-0.2,1.3-0.5,1.4c-0.3-1.2-0.9-0.5-1.2,0
				c-0.1,1,0.3,0.9,0.3,1.7c0,0.3-0.4,0.9-0.1,1.2c0.1,1-0.3,0.7-0.2,1.7c-0.5-0.4-0.5,0.5-1.1,0c0.2-0.8,0-1.3,0-2.2
				c0.2-0.9,1-0.5,0.8-1.4c-0.1,0-0.2-1.2-0.3-0.5c-0.2,0.4-0.3-0.1-0.5,0c-0.3,0.1-0.4,1.2-0.8,1c-0.1,0.5-0.1,1.2-0.4,1.4
				c-0.1-0.8-0.5,0.3-0.6-0.2c0.1-0.3,0-0.7,0.1-1.2c0.1-0.5,0.2-0.8,0.2-1.2c0-1.2,0-1.5-0.4-2.2c-0.2-0.1-0.2,0.4-0.3,0.5
				c-0.1,0.1-0.3,0.1-0.4,0.2c-0.2,0.3-0.5,1-0.6,1.4c-0.1,0.4-0.1,0.9-0.2,1.4c0,0.1-0.1,0.3-0.2,0.5c-0.3,1.2-0.4,2.4-0.7,3.4
				c-0.2,0.5-0.6,0.6-0.7,1.4c-0.2,0.3,0.2,1,0.1,1.9c-0.2,0.3-0.2,1.3-0.8,1c0-3.5,0.6-6.5,0.4-9.6c0.3-0.4,0.4-2.3,0.1-2.9
				c-0.1,0-0.3,0-0.3-0.2c-0.5,0.3-0.7,1.6-1,2.6c0,1.1,0.5,2.4-0.1,2.9c-0.2-0.2-0.2-1.1-0.3-1.4c-0.2,0-0.5,0-0.5-0.5
				c0-1.2,0-2.4-0.3-2.9c-0.9-0.2-0.7,2.6-1.2,3.6c-0.2,0.6-0.4-0.2-0.8,0c-0.2,1.1-0.3,2.6-0.8,3.1c0.1-1.3-0.3-1.2-0.5-1.9
				c0-1.1-0.2-1.7-0.5-2.2c-0.5-0.2-0.5,0.6-0.9,0.7c-0.2-0.1-0.1-0.9-0.4-0.7c-0.2,0.3,0,1.4-0.3,1.4c-0.2-0.5-0.5-0.9-0.9-1
				c-0.4,0.3-0.4,1.7-0.8,2.2c0.2,1.2-0.4,2.3-0.5,3.6c-0.2,1.8-0.1,3.9-0.2,6c0,0.6-0.3,0.4-0.3,1.2c0,0.3,0.1,0.5,0.1,1
				c-0.3,0.6-0.3,2.1-0.6,2.6c-0.4-2.7,0.1-5.7,0.1-8.4c0-1.6-0.2-3,0.1-4.3c0.3-0.7,0.8-0.8,1.1-1.7c-0.4-0.6-0.8,1.1-1.2,0.2
				c0.1-1.7-0.1-2.8-0.4-3.6c-0.3,0.3-0.5,0.2-0.7-0.2c0,0.8-0.3,0.4-0.4,0.7c-0.1,0.2-0.1,0.6-0.2,1c-0.3,1-0.5,2-0.7,3.1
				c-0.1,0.8-0.1,1.8-0.2,2.6c0,0.3-0.1,0.6-0.2,1c0,0.3-0.1,1.1-0.3,1c0-3.8,0.2-7.1,0.5-10.3c-0.3-0.9-1.1-1.4-1.4-0.2
				c-0.2-0.5-0.4-1.1-0.9-1c-0.8,1.4-0.6,4.1-0.7,6.7c0,0.4-0.2,1-0.2,1.4c-0.1,1.1,0,2.4-0.1,3.6c0,0.5-0.2,1-0.2,1.4
				c0,1,0,2,0,2.9c-0.3,1.3-0.1,4-0.6,5c0.1-2-0.1-3.1,0.2-4.6c-0.1-1.2,0-3.6,0.2-4.8c-0.1-3.3,0-6.9,0.1-10.1
				c-0.2-0.4-0.4-0.9-0.9-0.7c-0.3,0.4-0.4,1.4-0.6,2.2c-0.1,0.5,0,1-0.1,1.4c-0.1,0.5-0.3,0.6-0.3,1.2c0.2,0.8,0.1,3-0.2,3.4
				c-0.2-1.4,0.1-3.5,0.1-5.3c-0.1-0.4-0.6,0-0.6-0.7c-0.6,0.1-0.5,2.1-1,2.4c-0.1-1.6,0.1-5,0.1-6.5c-0.3-0.5,0-0.9-0.2-1.9
				c-0.3-0.4-0.5-0.9-1.1-0.7c-0.2,0.8-0.5,1.9-0.6,3.1c0,0.4,0,1,0,1.4c0,0.7-0.2,1.3-0.2,1.9c-0.1,2.5-0.1,4.3-0.1,5.5
				c-0.2,0.1-0.2,0.8-0.3,1.4c-0.1,1.7-0.1,4,0,5.3c-0.1,0.9-0.3,1.5-0.4,2.4c0,1,0,1.9,0,2.9c0,0.9-0.3,0.9-0.3,1.7
				c0,0.7,0.4,1.4,0,1.7c-0.4-0.1-0.1-0.9-0.1-1.4c0-0.6-0.1-1.3-0.1-1.9c0-1,0.2-2,0.2-3.1c0-0.9,0-1.8,0-2.6
				c0-0.7,0.2-1.2,0.2-1.9c0-2-0.1-3.8-0.4-5.3c-0.4,0-0.7-0.4-1.2-0.2c-0.1,1-0.3,2-0.5,2.9c0,4.7-0.6,8.1-0.6,13
				c-0.4,1-0.2,3.6-0.5,4.8c0.1,0.4,0.2,0.9,0.2,1.4c-0.1,0.7-0.4,0.6-0.4,1.4c0,1.1,0.1,2.4-0.4,2.4c-0.1-1.7,0.2-3,0-4.3
				c0.3-1.6,0-4.1,0.4-5.8c-0.1-0.6-0.1-1.1-0.1-1.9c0.1-2,0.4-4.5,0.5-6.2c0-0.6,0-1.2,0-1.9c0-0.9,0.2-1.8,0.2-2.6
				c0-0.4-0.1-0.8-0.1-1.2c0-1.9,0.2-3.7-0.2-4.8c0-0.1-0.2,0.1-0.2,0c-0.1-0.2-0.2-1-0.4-0.7c-0.4,0.6-0.5,1.4-0.6,2.4
				c0,0.3-0.2,0.7-0.2,1c0,0.4,0.1,0.8,0.1,1c0,0.3-0.2,0.4-0.2,0.7c0,0.5,0.3,1.5-0.1,1.7c-0.3-1.8,0.3-5.2-0.4-6.7
				c-0.4,0.2-0.5-0.4-0.7,0c-0.6,1.2-0.4,3.4-0.5,5.5c0,0.5-0.2,0.9-0.2,1.4c0,1.2,0.1,2.3,0,3.4c0,0.6-0.2,1.1-0.2,1.7
				c0,0.8,0,1.3,0.1,1.9c-0.1,0.5-0.3,1-0.3,1.7c-0.2,5.3-0.6,9.8-0.9,14.9c-0.3-0.1,0,1.4-0.4,1.2c-0.3-10.2,0.6-21.4,0.2-32.4
				c-0.3-0.6-0.6-1.2-1.2-1c-0.5,0.7-0.7,2.5-0.9,3.8c-0.1,1.2-0.1,2.1-0.2,3.4c-0.2,2.7-0.6,5.5-0.5,7.9c0,0.5-0.2,0.6-0.2,1.2
				c0,0.6,0.2,0.5,0.1,1.2c-0.1,0.5-0.3,0.7-0.3,1.4c0,2.3-0.4,3.8-0.4,6.2c-0.3,1.8-0.6,4.7-0.5,7c-0.4-0.3,0,1.4-0.3,1.4
				c-0.3-0.5-0.2-1.6-0.2-2.2c0-1,0.1-1.8,0.1-2.6c0-0.5-0.1-1.2-0.1-1.7c0-2.9,0.3-6,0.3-9.1c0-0.4-0.1-0.8-0.1-1.2
				c0-0.7,0.2-1.4,0.2-2.2c0-0.7,0-1.5,0-2.2c0-0.6,0.2-1.3,0.2-1.9c0-0.5-0.1-0.7-0.1-1c0-0.4,0.1-0.9,0.1-1.2c0-2.3,0.2-4.2,0.1-6
				c0-0.5-0.2-1-0.2-1.4c-0.1-0.7,0-1.3-0.1-1.9c-0.3-0.4-0.7-0.8-1.2-0.7c-0.9,2.3-1,6.6-1.1,10.8c-0.3,0.9-0.1,2.2-0.2,3.4
				c0,0.4-0.2,1-0.2,1.4c0,0.7,0,1.6,0,2.4c0,0.5-0.2,0.6-0.2,1.2c-0.1,1.1,0,2.6-0.4,2.9c-0.2-0.9,0.1-1.9,0.1-2.9
				c0-1.1-0.1-2.3,0-3.4c0-0.7,0.2-1.3,0.2-1.9c0-0.6-0.1-1.1-0.1-1.7c0-0.3,0.1-0.3,0.1-0.7c0-0.9,0-1.6,0-2.6
				c0-2.9,0.3-5.5-0.2-7.7c-0.4-0.3-0.4-0.1-0.8-0.2c-0.8,1.6-0.7,5.2-0.9,8.4c0,0.8-0.2,1.4-0.2,2.2c0,0.6,0,1.1,0,1.7
				c-0.1,2.1-0.6,4.1-0.2,5.8c-0.4,0.2-0.2,2-0.5,2.4c-0.1,0.7,0.2,2.4-0.2,2.4c-0.4-0.5-0.1-1.7,0-2.4c-0.1-1.4,0.1-2.9,0.1-4.6
				c0-1,0-2,0-3.1c0-1.3,0.2-2.7,0.2-4.1c0-0.5-0.1-1.1-0.1-1.7c0-0.6,0.1-1.3,0.1-1.9c0-1.1-0.3-1.9-0.1-2.9
				c-0.2-0.7-0.4-1.3-0.6-1.9c-0.4,0.2-0.5-0.3-0.8-0.2c-0.3,0.4-0.5,1.2-0.6,1.9c-0.1,0.9-0.1,1-0.2,2.2c0,0.4-0.2,0.8-0.2,1.2
				c0,0.8-0.1,2.3-0.1,2.6c0,0.3,0.1,0.3,0.1,0.7c0,0.3-0.2,0.6-0.2,1c-0.3,2.6-0.3,5.2-0.4,7.7c0,0.7-0.2,0.7-0.2,1.4
				c-0.1,0.8,0.1,0.9,0.1,1.7c-0.2,0.4-0.2,1.2-0.4,1.7c0,2.5-0.4,4.4-0.2,6.7c-0.3,0.1-0.2,1-0.4,1.2c-0.2-5.7,0.4-11.9,0.5-18
				c0-0.4-0.1-0.8-0.1-1.2c0-2.2,0.1-4.5,0.1-7c-0.3-0.8-1-1.3-1.5-0.7c-0.6,2.6-0.5,6.7-0.9,9.8c0.1,3.3-0.6,6.1-0.4,8.9
				c-0.5,1.1-0.3,3.8-0.7,5.3c0,1.1,0,2-0.1,2.4c-0.2,0.6,0,1.8-0.4,1.9c0-2.2,0-4.4,0-6.7c0.1-4.7,0.5-8.7,0.6-13c0-2,0-4,0-6
				c0-1.2,0.2-2.4-0.2-3.4c-0.4-0.3-0.7-0.1-1.2,0c-0.2,0.3-0.1,0.7-0.2,1.2c-0.1,0.4-0.2,0.8-0.3,1.2c-0.1,0.4,0,0.9,0,1.4
				c0,0.4-0.2,0.8-0.2,1.2c0,0.5-0.1,1-0.1,1.4c-0.1,1.5-0.1,2.8-0.1,4.1c0,0.5-0.3,0.3-0.2,1c0,2.6-0.4,4.5-0.4,7.2
				c-0.2,0.9-0.2,2-0.3,3.1c0,0.6-0.1,1.3-0.2,1.9c-0.1,1.2-0.1,2.7-0.4,3.6c0,0.8,0.2,1.6-0.1,1.9c-0.4-0.4-0.3-1.6-0.3-2.4
				c0-0.8,0.2-1.9,0.2-2.6c0-0.5-0.1-0.5-0.1-1c0-0.3,0.1-0.5,0.1-1c0.1-2,0-4.1,0.1-6.2c0-1,0.2-1.3,0.1-1.9c0-0.2,0.1-0.4,0.1-0.5
				c0-1.4,0-2.6,0-3.8c0.3-1.5,0.2-3.3,0.3-5.3c0.1-2.6,0.4-5.8,0-8.4c-0.4-0.3-0.7-0.5-1.2-0.2c-0.1,0.7-0.3,1.2-0.4,1.9
				c-0.3,1.9-0.3,4.5-0.6,6.5c-0.1,0.9,0.2,0.7,0.2,1.4c-0.2,0.3-0.4,0.5-0.4,1.2c0.1,0.4,0.2,0.9,0.2,1.4c-0.1,0.4-0.3,0.8-0.4,1.2
				c0.1,0.6,0.1,1.3,0.1,2.2c-0.2,0.1-0.1,0.8-0.1,1c-0.1,0.6-0.2,0.7-0.2,1.2c-0.1,1.1-0.1,2.3,0,3.4c-0.1,0.5-0.4,0.7-0.4,1.4
				c0.2,0,0,1,0.1,1.4c-0.3,0.7-0.2,2.5-0.3,3.6c-0.1,0.2-0.2,0.5-0.3,0.7c-0.1,1.7-0.1,3.3-0.5,4.3c0,0.5,0.3,1-0.1,1
				c-0.1-1.7,0-3.7,0-4.8c0-0.5-0.1-0.8-0.1-1.2c0-0.8,0.2-1.6,0.2-2.4c0.1-1.8,0.1-4.1,0.1-5.3c0-1.2,0-2.9,0-3.1
				c0-0.4,0-0.8,0-1.2c0.1-4,0.6-8.8,0.3-12.2c0-0.2,0.1-0.2,0.1-0.2c0-1.7-0.2-2.8-0.3-4.1c-0.2-0.5-0.6-0.6-1.1-0.5
				c-0.5,0.6-0.6,1.8-0.8,3.1c0,0.1-0.2,0.4-0.2,0.5c0,0.4,0,1,0,1.4c0,0.5-0.2,0.8-0.2,1.2c-0.1,1.9-0.3,3.8-0.4,5.5
				c-0.1,1.1,0,2.2-0.1,3.1c0,0.4-0.2,1-0.2,1.4c0,0.5,0,1.1,0,1.7c-0.1,1.4-0.3,2.8-0.4,4.1c0,0.7,0,1.3,0,1.9
				c-0.2,1.3-0.3,3.4-0.4,4.8c0,0.4,0,1.5-0.3,1.4c-0.5-0.4,0.1-1.1,0-2.2c0-8.1,1.1-15.8,0.3-23.3c-0.3-0.2-0.6-0.3-0.9-0.5
				c-0.3,0.4-0.4,0.8-0.5,1.4c-0.2,0.8-0.1,1.5-0.2,2.4c-0.1,0.6-0.2,1.2-0.3,1.9c-0.2,3-0.1,6.4-0.5,8.9c-0.1,0.9,0.2,0.9,0.2,1.7
				c-0.1,0.5-0.3,1-0.3,1.7c0,4.2-0.6,6.9-0.6,11c-0.4,1.3-0.3,3.7-0.6,5.3c-0.3-0.1-0.2-0.7-0.2-1.2c0-0.9,0-2.5,0-2.9
				c0-0.2-0.1-0.2-0.1-0.2c0-2,0-3.4,0-4.8c0-1.5,0.1-3.1,0-4.6c0.1-0.8,0.3-2,0.3-3.4c0-0.4-0.1-1-0.1-1.4c0-0.8,0.2-1.6,0.2-2.4
				c0.1-1.5,0.1-3.8,0.1-4.8c0-0.5-0.1-1-0.1-1.4c0.1-3.7,0.1-8.8-1.6-7.2c-0.5,2.2-0.5,5-0.7,7.7c0,1-0.2,1.9-0.2,2.9
				c0,0.7,0,1.5,0,2.2c0,0.7-0.2,1.3-0.2,1.9c0,0.9,0,1.8,0,2.6c-0.1,2-0.3,4-0.4,6c0,0.6,0,1.3,0,1.9c-0.1,1-0.2,2.1-0.3,3.1
				c-0.1,1.5-0.1,3.2-0.2,4.6c-0.1,0.8-0.2,1.6-0.3,2.4c-0.1,0.9,0,2-0.3,2.6c-0.2-0.8-0.1-1.7-0.1-2.6c0-3.9,0.2-6.8,0.3-10.1
				c0-1-0.1-1.9-0.1-2.9c0-1.3,0.2-2.5,0.2-3.8c0.1-2.1,0-3.8,0.1-5.5c0-0.6,0.2-1.3,0.2-1.9c0-0.4-0.1-0.7-0.1-1.2
				c0-3.4,0.2-7.1-0.4-9.8c-0.4-0.4-0.6,0.2-1.1-0.2c-0.2,0.8-0.5,1.9-0.6,3.1c0,0.5,0,1.2,0,1.9c-0.1,3.6-0.4,8.4-0.3,11.5
				c-0.3,1.5-0.2,3.3-0.3,5c-0.1,1.9-0.3,3.7-0.4,5.5c-0.1,1.2,0,2.1-0.1,2.9c0,0.5-0.1,1-0.1,1.4c-0.1,0.9,0,2-0.3,2.6
				c0-3-0.2-6.6-0.1-10.1c0-1.1,0.1-2.1,0.1-3.1c0-0.7-0.1-1.3-0.1-1.9c0-1.2,0.2-2.3,0.3-3.6c0-1.1,0-2.5,0-3.6
				c0.1-3.3,0.2-6.1,0.1-9.1c0-1.2-0.1-2.3-0.4-3.1c-0.5,0-0.6-0.4-1.1,0c-0.4,1.6-0.5,5.1-0.4,7.2c-0.2,0.7-0.1,1.6-0.1,2.4
				c0,0.7-0.1,1.3-0.1,1.7c0,0.3,0.1,0.3,0.1,0.7c0,2-0.2,4.1-0.3,6.2c0,0.4,0.1,0.8,0.1,1.2c0,3.5-0.5,6.5-0.3,9.4
				c-0.5,1.9-0.2,5.8-0.8,7.7c-0.2-0.9-0.1-1.9-0.1-2.9c0-0.8-0.1-1.6-0.1-2.4c0.1-4.4,0-9.6,0.2-14.4c0-0.8,0.2-1.8,0.2-2.6
				c0-0.4-0.1-1-0.1-1.4c0-0.4,0.1-0.9,0.1-1.4c0-0.4-0.1-0.7-0.1-1.2c0-0.4,0.1-0.7,0.1-1.2c0-0.4-0.1-1-0.1-1.2
				c0-0.4,0.2-0.6,0.2-1.2c0.1-3.5-0.1-7.5-0.7-8.9c-0.4,0.2-0.6-0.4-0.8,0c-0.7,1.2-0.5,4.5-0.8,6.7c-0.1,0.9,0.2,0.7,0.2,1.4
				c-0.4,1.3-0.2,3.6-0.2,4.8c0,1.1-0.2,2.1-0.2,3.1c-0.1,1,0.2,0.9,0.2,1.7c-0.5,1.5-0.4,4-0.5,6.2c0,0.5-0.2,0.9-0.2,1.4
				c0,0.6,0,1.3,0,1.9c0,0.6-0.2,1.1-0.2,1.7c0,0.5,0.2,1.7-0.2,1.9c-0.2-3.1-0.3-6.3-0.3-9.6c0-3.5,0.3-7.1,0.2-10.6
				c0-2.1-0.1-4.4-0.6-6.2c-0.4,0.2-0.5-0.3-0.8-0.2c-0.3,1.4-0.2,2.7-0.2,4.3c0,1.3,0,2.9-0.1,4.1c0,0.6-0.2,1.1-0.2,1.7
				c0,0.4,0.1,0.8,0.1,1c0,1.1-0.3,2.5,0,3.6c0,0.6-0.4,0.2-0.3,1c0.3,1,0.2,2.8-0.2,3.4c-0.1-1.5,0.1-3,0.1-4.3
				c0-0.5-0.1-0.8-0.1-1.2c0-0.7,0.2-1.4,0.2-2.2c0-1.1-0.1-2.4,0.1-3.4c-0.3-0.6,0-2.2,0-3.4c0-0.7-0.1-1.4-0.1-2.2
				c0-1.9,0.4-6.2-0.5-6.7c-0.2-0.1-0.3,0.3-0.5,0c-0.4,0.4-0.1,2.6-0.6,2.9c-0.1-1.4,0-2.7-0.1-4.6c-0.3-0.7-0.5-1.6-1.2-1.4
				c-0.6,0.5-0.5,2.5-0.9,1.4c-0.2-0.7-0.6,0.2-0.9,0c-0.3,0-0.2-1-0.5-1c-0.3,0-0.6,0-1,0c-0.6,4.6-0.4,10.8-0.6,16.3
				c-0.1,3.7-0.5,7.1-0.3,10.3c-0.1,0.6-0.3,0.9-0.3,1.7c-0.1,1.2,0.1,1.7-0.2,2.2c-0.2-2.3,0-5.4-0.2-7.7c0.5-2,0.1-5.3,0.6-7.4
				c-0.2-2.3,0.1-5.6,0.2-8.6c0-1.7-0.1-3.4,0.2-4.1c-0.2-2.4,0.2-5.3,0.3-7.7c-0.2-0.8-0.3-1.8-0.4-2.9c-0.3-0.2-0.4-0.7-0.9-0.5
				c-0.2,0.5-0.5,1.4-0.6,2.4c-0.1,1.1,0.1,2.6-0.3,3.4c-0.6,0.4-0.4-1.1-0.9-1c-0.2-0.4-0.6-0.2-0.9-0.2c-0.4,0.7-0.5,2.4-0.8,3.6
				c-0.3-0.3-0.2-1.9-0.4-2.4c-0.6-0.5-0.9,0.1-1.2,0.7c-0.2-0.2-0.4-0.6-0.6-0.2c0,1.1-0.3,2-0.4,3.1c-0.1,1.2-0.1,2.6-0.1,3.8
				c-0.1,6.3,0,13.6-0.4,19.7c0,1,0.5,0.9,0.5,1.9c-0.3,0.8-0.2,2.8-0.3,4.1c-0.1-0.3-0.2-0.3-0.4,0c0,1.8,0,3.8-0.3,5
				c-0.4-3.5,0.1-6.9-0.3-9.6c0.1-0.5,0.2-0.7,0.2-1.4c0-9.1,0.1-15.6,0-22.8c-0.2-0.7-0.4-1.1-0.5-1.9c0.1-1.9,0.1-4.8,0-6.7
				c-0.1-2.3,0.3-5.3-0.4-6.5c-0.4-0.1-0.4,0.8-0.8,0.7c-0.2,1.5-0.4,3.1-0.5,5c0,1.1-0.1,2.9-0.1,3.4c0,0.1,0.1,0.5,0.1,1
				c0,1.4-0.2,2.8-0.2,4.1c-0.1,3.2-0.1,5.3-0.5,7.4c0.1,0.2,0.1,0.8,0.2,1.2c-0.1,0.5-0.2,1-0.3,1.7c0.2,0.9-0.1,1.6-0.2,2.4
				c0.1,0.6,0.2,1.4-0.1,1.7c-0.1,1,0.3,0.7,0.2,1.7c-0.4-0.1-0.3,0.9-0.4,1.4c0.1,2.5-0.1,3.2,0,5.5c-0.2,0.7-0.3,1.7-0.1,2.6
				c-0.2,0.2-0.3,0.6-0.3,1.2c0,2.8-0.3,5.9-0.2,8.2c-0.3,1.2-0.4,2.6-0.3,4.3c-0.3,0.1-0.1,1.6-0.6,1.2c0.1-4.8,0.5-8.7,0.3-13.2
				c0.1-0.4,0.3-0.6,0.3-1.2c-0.1-2.2,0.1-4.5,0.2-7c0-0.8-0.1-1.8,0-2.6c0-0.6,0.2-1.1,0.2-1.7c0-1-0.1-2.1,0-3.1
				c0-0.5,0.2-1.1,0.2-1.7c0-0.5-0.1-1-0.1-1.4c0-5,0.4-10.4-0.3-14.9c0-1.3,0.1-2.9-0.2-3.6c-0.7-0.4-0.8,0.6-1.2,0.7
				c0.1-3,0-5.4-1.2-5c-1.5,3-0.6,11.2-1.1,15.8c-0.1,1,0.3,0.8,0.2,1.9c-0.3,0.2-0.1,1.4-0.4,1.4c-0.1-1.9,0.1-3.7,0-5.3
				c-0.1-1-0.4-1.5-0.5-2.4c-0.1-4,0.1-7.5,0-10.6c-0.3-0.5-0.9-0.3-1.2,0C239.4,442.8,239.6,447.2,239.5,451.9z M347.5,463.2
				c0-0.5,0-0.8,0.1-1c0.1-0.2,0.2-0.1,0.3-0.2c0.1-0.2,0.3-0.8,0.4-1c0-0.1,0.2,0.1,0.2,0c0.2-0.4,0.4-0.7,0.5-1.2
				c0.6-0.2,0.8-1.4,1.3-1.7c-0.1-0.7-0.3-2.5,0.3-2.2c0.1,0.9-0.4,1-0.1,1.7c0.3,0.2,0.1-0.8,0.3-1c0.3-0.1,0.2-1,0.7-0.7
				c0,0.9-0.4,1.2-0.4,2.2c-0.5,0.6-1,1.3-1.3,2.4c-0.7,0.3-1,1.5-1.6,1.7c-0.1,0.2-0.3,0.4-0.3,1
				C347.7,463.2,347.6,463.2,347.5,463.2z M248.4,503.2c-0.1,0-0.1-0.3-0.1-0.5c-0.3-0.7,0.1-1,0.1-1.7c-0.3-3.5-0.3-7.7-0.2-11.8
				c0.1-3.3,0-7,0.1-9.8c0-0.5,0-1.3,0.1-1.7c0-0.2,0-1.1,0.3-1c0.2,7.1-0.2,14,0,20.4c0,0.9,0.1,1.6,0.2,2.4
				C248.8,500.9,248.7,502.3,248.4,503.2z M249.9,499.4c0.2-2.7,0.7-4.7,0.8-7.7c0.3,0,0.3,1.1,0.3,1.7c0.1,2-0.2,4.5-0.4,5.8
				c-0.2,0-0.3,0.2-0.4,0.5C250,499.7,250,499.4,249.9,499.4z M234.5,499.6c-0.4-0.9-0.4-4-0.1-5.3c0-0.9,0-1.6-0.1-2.2
				c0.4-1.7,0.3-4.8,0.5-7.9c0.2-3.2,0.5-6.7,0.9-9.8c0.1-1.3,0.2-2.4,0.3-3.8c0-0.2-0.1-1.2,0.2-1c0,1.7,0.1,3.4,0,5
				c0,0.6-0.1,1-0.2,1.7c0,0.6,0,1.3,0,1.9c0,0.6-0.2,1.1-0.2,1.7c-0.1,1.2-0.1,2.4-0.2,3.8c-0.1,1.9-0.1,4.7-0.3,6.7
				c0,0.4-0.2,0.6-0.2,1c-0.1,1.1,0,2.2-0.3,3.1c-0.1,1.1,0.3,0.9,0.2,1.9C234.6,497,234.8,499,234.5,499.6z M239.9,497.5
				c-0.1,0-0.2,0-0.3,0c-0.2-3.2,0-6,0.1-9.1c0-0.6,0-1.3,0-1.9c0.1-1.2,0.3-2.4,0.4-3.6c0.1-1.2,0-2.5,0.3-3.6
				c0.3-0.3,0.2,0.7,0.3,1c0.2,0.7-0.1,3,0.1,4.6c0,0.7-0.1,1.1-0.2,1.7c-0.1,0.7,0.3,0.5,0.2,1.2c-0.3,0.6-0.1,2.6-0.3,3.6
				c-0.1,0.9,0.2,0.9,0.3,1.4c0,0.8,0.1,1.9-0.1,2.4c-0.2-0.2,0-1.2-0.4-1C240.1,495.1,239.9,496.1,239.9,497.5z M256.7,496.8
				c-0.4-0.1-0.5-2.9-0.2-3.1c0.3-0.4,0.1,0.8,0.3,0.7C256.7,495.5,256.9,495.8,256.7,496.8z M225.7,496.5c0.1-0.2,0.1-0.4,0.1-0.7
				c0.1,0.1,0.2,0.2,0.3,0.2C226.2,496.8,225.9,496.9,225.7,496.5z M217.5,493.2c-0.1,0-0.1,0-0.2,0c0-0.2,0-0.2-0.1-0.2
				c0-0.2,0-0.3,0-0.5c0.1,0,0.1-0.1,0.1-0.2c0.1,0,0.1,0,0.2,0c0,0.2,0,0.2,0.1,0.2c0,0.2,0,0.3,0,0.5
				C217.5,492.9,217.5,493,217.5,493.2z M243,492.7c-0.1,0-0.2,0-0.3,0c0.1-1.1,0.1-2.5,0.4-3.1c0-0.5-0.2-1.2,0-1.7
				C243.4,489.2,243.2,491.5,243,492.7z M244.3,492c-0.2,0.1-0.2-0.2-0.3-0.2c0-0.6,0.2-0.7,0.2-1.2
				C244.4,490.5,244.2,491.5,244.3,492z M251,490.5c0-0.3,0-0.6,0-1c0.3-0.1,0.4,0.1,0.4,0.7C251.3,490.5,251.2,490.5,251,490.5z
				 M258.1,490.3c-0.1-0.5-0.3-1.7,0.1-1.7C258.3,489.4,258.1,489.4,258.1,490.3z M260.8,490c-0.1-1.9-0.3-5.2,0.1-7.2
				c-0.1-1.8-0.1-4,0-6.2c0-0.5-0.1-1.6,0.3-1.4c0.2,0.4-0.1,0.8-0.1,1.2c-0.2,3.5,0.1,8.8,0,12.7
				C260.9,489.1,260.9,489.7,260.8,490z M213.8,489.8c-0.1,0-0.1,0-0.2,0c-0.4,0.2-0.1-1,0-1.2c0-1.2,0-2.5,0.1-3.6
				c0.2-2.6,0.6-5.5,0.8-8.4c0.2-2.4,0.2-4.9,0.6-7.2c0-2.8,0.4-4.8,0.5-7.4c0.3,1.3,0.2,3.1,0.1,4.8c0,0.6-0.1,1.1-0.1,1.7
				c0,0.5-0.2,1-0.2,1.4c-0.1,2.5-0.1,5.1-0.5,6.5c0.2,0.8,0,0.9,0,1.9c-0.4,3-0.5,6.7-1.1,9.4C213.8,488.6,214,489,213.8,489.8z
				 M214.9,489.3c-0.4,0.2-0.2-1.6,0.1-1.2C215,488.7,215,489,214.9,489.3z M255,488.6c-0.1-0.1,0-0.7-0.2-0.7
				c-0.1-1.8,0.1-3.9,0.1-5.8c0-0.6-0.1-1.2-0.1-1.9c0-2.8,0.1-6.8,0.2-10.1c0-0.8,0-1.9,0.1-2.6c0-0.5,0.1-1.5,0.4-1.7
				c0.2,3,0.3,8.2,0.2,12.2c0,0.5-0.1,0.9-0.1,1.4c0,0.8,0.2,1.4,0.2,2.2c0.1,1.7-0.1,3.2-0.1,4.8c-0.3,0.2-0.2-0.7-0.5-0.5
				C255.1,486.9,255.1,487.9,255,488.6z M218.6,486c-0.3,0.2-0.4-0.6-0.3-1C218.6,484.9,218.6,485.3,218.6,486z M259.3,485.2
				c-0.1,0-0.2-0.1-0.2-0.2c-0.1-0.6,0.1-1.1,0.1-1.7c0-0.3-0.2-0.6-0.2-1.4c0-1.2,0.1-2.5,0.2-3.8c0-0.7,0-1.4,0-2.2
				c0-0.5,0.2-1.1,0.2-1.7c0-0.4-0.1-0.8-0.1-1.2c0-1,0.2-1.9,0.2-2.9c0.2-5.8-0.2-11.3,0.9-14.6c0.6,0.1,0.2,1.9,0.2,3.1
				c0,2.2,0,4.9-0.2,6.5c-0.2,0.5,0,0.5,0.1,1c-0.2,1.1-0.2,2.3-0.1,3.4c-0.2,0.9-0.1,2.1-0.2,3.4c0,0.4-0.2,0.8-0.2,1.2
				c-0.1,1.3-0.1,2.7-0.2,4.1c-0.1,1.8-0.3,3.5-0.5,5C259.4,483.8,259.4,484.6,259.3,485.2z M218.6,484.3c-0.1,0-0.2,0-0.3,0
				c-0.1-1,0.1-2,0.1-3.1c0-1.1-0.1-2-0.1-3.1c0-2.1,0.3-4.1,0.4-6c0.4,1.5,0.2,5.1-0.1,6.5C218.9,480.3,218.5,482.2,218.6,484.3z
				 M244.6,483.1c-0.3-0.1-0.2-1.6,0.1-1.4C244.7,482.4,244.6,482.5,244.6,483.1z M242.5,483.1c-0.2,0.1-0.3-1.1-0.1-1.2
				C242.7,481.7,242.5,482.9,242.5,483.1z M329,480.7c-0.3-0.3-0.2-1.9,0.2-1.9C329,479.6,329.1,479.8,329,480.7z M264.3,480.4
				c-0.4,0.3-0.4-1.7,0-1.4C264.2,479.8,264.5,480,264.3,480.4z M222.4,479.2c-0.2-0.4,0-1.2,0-1.9c0-0.7-0.1-2,0.3-1.9
				c0,1.5-0.1,2,0,3.4C222.5,478.7,222.4,478.9,222.4,479.2z M239.8,478.3c-0.1,0-0.2,0-0.3,0c0-0.7,0-1.4,0.4-1.2
				C239.9,477.8,239.7,477.7,239.8,478.3z M271.5,476.4c-0.4-0.3-0.3-3-0.1-3.6C272.2,473.6,271.1,475,271.5,476.4z M313.1,475.6
				c-0.3,0.2-0.3-0.8-0.2-1.2C313.1,474.6,313.3,475.2,313.1,475.6z M331.2,474.7c-0.2-0.4,0.1-1.1,0.2-1.7
				C331.8,473,331.6,475.2,331.2,474.7z M313.2,474c-0.4,0-0.2-3-0.1-3.6C313.4,471.5,313.2,472.6,313.2,474z M240.6,472.5
				c-0.1-0.1-0.2-0.2-0.2-0.5c0-2.1,0-4.3,0.3-5.5c-0.1-1.2-0.3-2.2,0.1-3.1c0.4,0,0.1,1.2,0.1,1.7c0,0.4,0.1,0.5,0.1,1
				C241,468.1,240.7,470.6,240.6,472.5z M337.3,471.8c0-0.8,0.1-1.6,0.5-1.4c0,0.4,0,0.8,0,1.2C337.6,471.4,337.6,471.9,337.3,471.8
				z M271.6,471.8c-0.2,0.1-0.2-0.2-0.3-0.2c-0.1-0.6,0.1-1.2,0.1-1.7c0-0.4-0.2-0.6-0.1-1c0,0,0.2-0.2,0.2-0.2
				c0-0.6-0.1-1.4-0.1-2.2c0-0.9,0.1-1.9,0.2-2.9c0.3-0.2,0.2,1,0.1,1.2c0,0.7,0.2,0.7,0.2,1.4C271.5,467.8,271.8,470.3,271.6,471.8
				z M252.7,471.3c-0.4,0.1-0.1-1.3-0.1-1.7C252.8,469.7,252.6,470.8,252.7,471.3z M329.5,466.8c-0.1,0-0.2,0-0.3,0
				c-0.2-0.6-0.1-2,0.3-1.9C329.5,465.5,329.5,466.1,329.5,466.8z M341.8,466.5c0.2-0.2-0.1-1.4,0.3-1.2
				C342.1,466,342.1,466.6,341.8,466.5z M261.7,466.5c-0.2-0.5-0.2-1-0.1-1.7C262.1,464.8,261.8,466.1,261.7,466.5z M248.6,466
				c-0.2-0.7,0-1.3-0.1-2.4c0.3,0.1,0.2,1.2,0.4,1.7C248.8,465.5,248.7,465.7,248.6,466z M328.4,465.1c-0.2-2,0.2-5.3,1.1-4.8
				c0,1.2,0,2.4,0,3.6C329,464.1,329,465.4,328.4,465.1z M242.8,463.9c-0.1-0.1-0.2-0.2-0.2-0.5c0.1-1.3,0.1-3,0.3-4.3
				C243.3,460,243,462.8,242.8,463.9z M222.6,463.9c-0.2-0.2-0.3-0.4-0.3-1.2C222.6,462.5,222.7,463.5,222.6,463.9z M240.4,463.4
				c-0.1-0.1-0.2-0.4-0.3-0.5c0-0.4,0.1-0.5,0.1-1C240.6,461.9,240.6,463,240.4,463.4z M252.6,462c-0.3,0.2-0.2-1-0.1-1.2
				C252.8,461,252.5,461.2,252.6,462z M240.9,462c-0.4-0.1-0.3-1.3-0.2-1.9C241,460.1,240.9,461.2,240.9,462z M261.8,461.2
				c-0.1,0-0.2-0.1-0.2-0.2c-0.1-0.6-0.1-2.1-0.1-3.4c0-1.1,0-2.7,0.3-2.4c0.3-0.2,0.2,1,0.2,1.4c0,1.3-0.1,2.7-0.1,3.8
				C261.9,460.9,261.8,460.9,261.8,461.2z M215.8,461c-0.4,0.2-0.4-1.6,0.1-1.2C216,460.4,215.9,460.7,215.8,461z M255.8,458.1
				c-0.1-0.5-0.3-0.9-0.5-1.4c0.3-1-0.2-3.8,0.5-3.8C256,454.3,256.1,456.8,255.8,458.1z M243.2,458.1c-0.3,0-0.2-1.1-0.1-1.4
				C243.3,456.7,243.2,457.7,243.2,458.1z M240.6,456.4c0.3,0.2,0.6,0.4,0.6,1.2C240.9,458.3,240.6,457.4,240.6,456.4z M248.7,457.2
				c-0.2-0.2-0.1-1.6,0.2-1.4C249,456.5,248.8,456.7,248.7,457.2z M351.9,455.7C351.9,453.9,352.6,455.6,351.9,455.7L351.9,455.7z
				 M240.7,455.7c-0.3,0.2-0.1-0.7-0.2-1.2C240.9,454.4,240.9,455.4,240.7,455.7z M243.2,453.3c-0.1-0.1-0.2-0.2-0.2-0.5
				c0.1-2.6-0.1-6.2,0-8.6c0-0.7,0-1.9,0.4-1.9c0,2.5,0.1,3.4,0.1,6c0.2-0.1,0.4-0.1,0.4-0.7c0.2,1,0,3-0.5,2.9
				C243.3,451.6,243.6,452.3,243.2,453.3z"/>
			<path class="st2" d="M342.8,470.1c0.1-1.6,0.6-3.7,1.6-3.8c0.3,0.1,0.1-0.9,0.4-0.7c0.2,0.7-0.2,0.9-0.4,1.2
				c-0.2,0.4-0.3,1-0.7,1c-0.2,0.3-0.1,1.2-0.3,1.4c-0.2,0-0.3-0.2-0.3-0.7C343,468.7,343.2,470.3,342.8,470.1z"/>
		</g>
	</g>
</g>
<g>
	<path class="st0" d="M10.6,67.6c0,0,4-4.1,10-10.2c1.5-1.5,3.2-3.1,4.9-4.9c1.8-1.7,3.6-3.5,5.5-5.4c1.9-1.9,3.9-3.8,5.9-5.7
		c2-1.9,4.1-3.9,6.2-5.8c2.1-2,4.1-4,6-6c2-2,3.9-4,6-5.7c2-1.7,4.1-3.2,6.2-4.6c2-1.4,4-2.6,5.9-3.7c3.7-2.2,7.1-3.7,9.5-4.7
		c1.2-0.5,2.2-0.8,2.9-1.1c0.7-0.2,1.1-0.3,1.1-0.3l0.7,0.8c0,0-0.2,0.4-0.5,1C80.5,12,80,12.9,79.3,14c-1.4,2.2-3.6,5.2-6.4,8.4
		c-1.4,1.6-3,3.4-4.7,5.1c-1.7,1.8-3.6,3.5-5.7,5.2c-2.1,1.7-4.4,3.2-6.7,4.8c-2.3,1.6-4.7,3.2-7,4.8c-2.3,1.7-4.6,3.3-6.9,5
		c-2.3,1.7-4.5,3.2-6.7,4.8c-2.2,1.5-4.3,3-6.3,4.4c-2,1.4-3.9,2.7-5.7,3.9c-7.1,4.8-11.9,7.9-11.9,7.9L10.6,67.6z"/>
</g>
<g>
	<path class="st0" d="M246.1,260.5c0,0-0.9-0.5-2.5-1.4c-1.6-0.9-3.8-2.3-6.3-3.9c-2.6-1.7-5.5-3.7-8.6-6c-1.5-1.1-3.1-2.3-4.7-3.6
		c-1.6-1.2-3.2-2.5-4.8-3.8c-1.6-1.3-3.2-2.6-4.7-3.9c-1.5-1.3-3-2.6-4.4-3.9c-2.9-2.6-5.5-5-7.6-7.2c-2.2-2.2-3.9-4.1-5.1-5.4
		c-1.2-1.3-1.9-2.2-1.9-2.2s0.9,0.5,2.5,1.4c1.6,0.9,3.8,2.3,6.3,3.9c2.6,1.7,5.5,3.7,8.6,6c1.5,1.1,3.1,2.3,4.7,3.6
		c1.6,1.2,3.2,2.5,4.8,3.8c1.6,1.3,3.2,2.6,4.7,3.9c1.5,1.3,3,2.6,4.4,3.9c2.9,2.6,5.5,5,7.6,7.2c2.2,2.2,3.9,4.1,5.1,5.4
		C245.5,259.7,246.1,260.5,246.1,260.5z"/>
</g>
</svg>
